<?xml version="1.0" encoding="UTF-8"?>
<svg id="Layer_1" data-name="Layer 1" xmlns="http://www.w3.org/2000/svg" viewBox="0 0 181.42 181.42">
  <path d="M82.86,110.76c.38-4.3,3.78-8.5,8.02-9.5,5.01-1.18,9.83.97,12.2,5.49,3.51-5.52,2.51-13.72-2.61-17.84-2.99,1.37-6.48,1.35-9.34-.31l-3.92,8.01c-1.36,1.43-3.37-.57-4.83-.99l-2.32,5.13c-.5.76-1.09.87-1.94.68-1.23-.27-4.89-2.22-6.28-2.89-.98-.47-3-1.27-3.76-1.81-2.2-1.55,1.35-5.13,1.54-7.07-1.23-.89-4.19-1.13-3.67-3.18l14.65-31.36c1.23-2.07,3.4-.09,4.97.53l2.85-5.94c-.91-.9-3.32-1.07-3.68-2.39-.4-1.51,1.05-2.44,2.38-1.72,5.66,3.17,12.64,5.3,18.18,8.5,1.85,1.07.96,3.41-.99,2.96-.53-.12-3.03-1.61-3.27-1.39l-2.61,6.04c.88.46,3.55,1.21,3.75,2.23.28,1.44-2.49,5.37-2.28,6.03,2.75,1.31,4.59,3.22,5.8,6,.23.52.26,1.31.57,1.72.34.45,2.05,1.58,2.63,2.12,4.14,3.86,7.19,9.34,8.13,14.95,1.46,8.63-1.5,16.77-6.59,23.61l9.13,14.53c1.28.25,4.53-.45,5.37.65.76.99.09,2.54-1.22,2.51l-66.07-.09c-.83-.53-1.15-1.73-.44-2.48.09-.1.94-.54,1.01-.54h24.64v-9.33h-23.49c-.49,0-2.03-1.11-2.37-1.56-1.07-1.39-1.12-3.75-.14-5.21.44-.65,1.72-1.75,2.51-1.75h3.93c.23-.14.23-.33.25-.56.17-1.43-.24-3.36-.08-4.7.12-1.01.88-1.37,1.79-1.46,4.15-.39,8.89.31,13.11,0,.53-.13,1.55.84,1.55,1.23v5.48h2.95c.09-1.41-.12-2.95,0-4.34ZM91.24,50.91l-2.82,6.11,7.22,3.33,2.82-6.11-7.22-3.33ZM98.58,65.01l-15.86-7.2-13.27,28.47,15.88,7.37,3.25-6.99c-.74-.98-1.43-1.79-1.92-2.94-3.04-7.17,2.34-14.69,9.97-14.37l1.96-4.34ZM103.29,79.6c0-3.98-3.23-7.22-7.22-7.22s-7.22,3.23-7.22,7.22,3.23,7.22,7.22,7.22,7.22-3.23,7.22-7.22ZM107.49,82.77c-.44-.43-.89-.87-1.38-1.24-.27,2.11-1.48,3.97-2.92,5.48,6.06,6.23,6.58,15.57,1.8,22.73l3.66,5.68c7.58-9.74,7.87-23.71-1.16-32.65ZM72.49,90.94l-1.74,3.7,7.19,3.38,1.74-3.7-7.19-3.38ZM85.97,110.6v22.35h29.72s.18.24.24.16l-.09-.48c-4.09-6.26-7.93-12.68-11.96-18.98-1.28-2-3.85-6.64-5.48-7.95-4.58-3.69-11.74-.9-12.43,4.9ZM66.49,111.5v3.6h10.31v-3.6h-10.31ZM82.86,120.5l-.15-2.38-22.34-.06c-1.37-.22-1.37,2.44-.51,2.44h23Z"/>
  <path d="M98.76,112.34c0,2.57-2.08,4.65-4.65,4.65s-4.65-2.08-4.65-4.65,2.08-4.65,4.65-4.65,4.65,2.08,4.65,4.65ZM95.7,112.35c0-.88-.72-1.6-1.6-1.6s-1.6.72-1.6,1.6.72,1.6,1.6,1.6,1.6-.72,1.6-1.6Z"/>
</svg>