<svg width="32" height="31" viewBox="0 0 32 31" fill="none" xmlns="http://www.w3.org/2000/svg">
<g clip-path="url(#clip0_333_6461)">
<path fill-rule="evenodd" clip-rule="evenodd" d="M30.4004 14.8172C30.4004 6.63761 23.8104 0.00708008 15.6823 0.00708008C7.5505 0.00891985 0.960449 6.63761 0.960449 14.8191C0.960449 22.2094 6.34362 28.3359 13.3789 29.4471V19.0984H9.64416V14.8191H13.3826V11.5535C13.3826 7.84266 15.5811 5.79316 18.9424 5.79316C20.554 5.79316 22.2374 6.082 22.2374 6.082V9.72475H20.3811C18.5542 9.72475 17.9838 10.8672 17.9838 12.0392V14.8172H22.0644L21.4132 19.0965H17.982V29.4452C25.0173 28.334 30.4004 22.2076 30.4004 14.8172Z" fill="white"/>
</g>
<defs>
<clipPath id="clip0_333_6461">
<rect width="30.72" height="30.72" fill="white" transform="translate(0.320312 0.00708008)"/>
</clipPath>
</defs>
</svg>
