<svg width="32" height="31" viewBox="0 0 32 31" fill="none" xmlns="http://www.w3.org/2000/svg">
<g clip-path="url(#clip0_333_6463)">
<path d="M16.6405 1.28711C12.8196 1.28711 12.3391 1.30471 10.8378 1.37159C9.33655 1.44199 8.31399 1.67783 7.41815 2.02631C6.47847 2.37975 5.62733 2.93416 4.92423 3.65079C4.20804 4.35425 3.6537 5.20529 3.29975 6.14471C2.95127 7.03879 2.71367 8.06311 2.64503 9.55911C2.57815 11.0639 2.56055 11.5426 2.56055 15.3689C2.56055 19.1916 2.57815 19.6703 2.64503 21.1716C2.71543 22.6711 2.95127 23.6937 3.29975 24.5895C3.66055 25.5153 4.14103 26.3002 4.92423 27.0834C5.70567 27.8666 6.49063 28.3489 7.41639 28.7079C8.31399 29.0564 9.33479 29.294 10.8343 29.3626C12.3373 29.4295 12.8161 29.4471 16.6405 29.4471C20.465 29.4471 20.942 29.4295 22.445 29.3626C23.9428 29.2922 24.9689 29.0564 25.8647 28.7079C26.8038 28.3543 27.6543 27.7999 28.3569 27.0834C29.1401 26.3002 29.6205 25.5153 29.9813 24.5895C30.3281 23.6937 30.5657 22.6711 30.6361 21.1716C30.7029 19.6703 30.7205 19.1916 30.7205 15.3671C30.7205 11.5426 30.7029 11.0639 30.6361 9.56087C30.5657 8.06311 30.3281 7.03879 29.9813 6.14471C29.6274 5.20527 29.0731 4.35422 28.3569 3.65079C27.654 2.9339 26.8028 2.37945 25.8629 2.02631C24.9653 1.67783 23.941 1.44023 22.4433 1.37159C20.9402 1.30471 20.4633 1.28711 16.637 1.28711H16.6423H16.6405ZM15.3786 3.82503H16.6423C20.4017 3.82503 20.8469 3.83735 22.3306 3.90599C23.7034 3.96759 24.4497 4.19815 24.946 4.38999C25.6025 4.64519 26.0724 4.95143 26.5652 5.44423C27.058 5.93703 27.3625 6.40519 27.6177 7.06343C27.8113 7.55799 28.0401 8.30423 28.1017 9.67703C28.1703 11.1607 28.1844 11.606 28.1844 15.3636C28.1844 19.1212 28.1703 19.5682 28.1017 21.0519C28.0401 22.4247 27.8095 23.1692 27.6177 23.6655C27.3919 24.2769 27.0316 24.8296 26.5634 25.2829C26.0706 25.7757 25.6025 26.0802 24.9442 26.3354C24.4514 26.529 23.7052 26.7578 22.3306 26.8212C20.8469 26.8881 20.4017 26.9039 16.6423 26.9039C12.8829 26.9039 12.4359 26.8881 10.9522 26.8212C9.57943 26.7578 8.83495 26.529 8.33863 26.3354C7.72703 26.11 7.17373 25.7504 6.71943 25.2829C6.25083 24.8289 5.88998 24.2756 5.66343 23.6637C5.47159 23.1692 5.24103 22.4229 5.17943 21.0501C5.11255 19.5665 5.09847 19.1212 5.09847 15.3601C5.09847 11.6007 5.11255 11.1572 5.17943 9.67351C5.24279 8.30071 5.47159 7.55447 5.66519 7.05815C5.92039 6.40167 6.22663 5.93175 6.71943 5.43895C7.21223 4.94615 7.68039 4.64167 8.33863 4.38647C8.83495 4.19287 9.57943 3.96407 10.9522 3.90071C12.2511 3.84087 12.7545 3.82327 15.3786 3.82151V3.82503ZM24.1575 6.16231C23.9356 6.16231 23.7159 6.20601 23.5109 6.29092C23.3059 6.37583 23.1197 6.50029 22.9628 6.65718C22.8059 6.81408 22.6814 7.00034 22.5965 7.20533C22.5116 7.41032 22.4679 7.63003 22.4679 7.85191C22.4679 8.07379 22.5116 8.2935 22.5965 8.49849C22.6814 8.70348 22.8059 8.88974 22.9628 9.04664C23.1197 9.20353 23.3059 9.32799 23.5109 9.4129C23.7159 9.49781 23.9356 9.54151 24.1575 9.54151C24.6056 9.54151 25.0354 9.3635 25.3522 9.04664C25.6691 8.72978 25.8471 8.30002 25.8471 7.85191C25.8471 7.4038 25.6691 6.97404 25.3522 6.65718C25.0354 6.34032 24.6056 6.16231 24.1575 6.16231ZM16.6423 8.13703C15.6832 8.12207 14.7308 8.29804 13.8403 8.65472C12.9499 9.01139 12.1394 9.54163 11.4559 10.2146C10.7723 10.8875 10.2295 11.6897 9.85899 12.5744C9.48847 13.4592 9.29765 14.4088 9.29765 15.368C9.29765 16.3272 9.48847 17.2768 9.85899 18.1615C10.2295 19.0463 10.7723 19.8485 11.4559 20.5214C12.1394 21.1943 12.9499 21.7246 13.8403 22.0813C14.7308 22.4379 15.6832 22.6139 16.6423 22.5989C18.5405 22.5693 20.351 21.7945 21.6829 20.4416C23.0148 19.0888 23.7613 17.2665 23.7613 15.368C23.7613 13.4695 23.0148 11.6472 21.6829 10.2943C20.351 8.9415 18.5405 8.16665 16.6423 8.13703ZM16.6423 10.6732C17.8872 10.6732 19.0811 11.1677 19.9614 12.048C20.8417 12.9283 21.3362 14.1222 21.3362 15.3671C21.3362 16.612 20.8417 17.8059 19.9614 18.6862C19.0811 19.5665 17.8872 20.061 16.6423 20.061C15.3974 20.061 14.2035 19.5665 13.3232 18.6862C12.4429 17.8059 11.9484 16.612 11.9484 15.3671C11.9484 14.1222 12.4429 12.9283 13.3232 12.048C14.2035 11.1677 15.3974 10.6732 16.6423 10.6732Z" fill="white"/>
</g>
<defs>
<clipPath id="clip0_333_6463">
<rect width="30.72" height="30.72" fill="white" transform="translate(0.640137 0.00708008)"/>
</clipPath>
</defs>
</svg>
