<svg width="124" height="120" viewBox="0 0 124 120" fill="none" xmlns="http://www.w3.org/2000/svg">
<g clip-path="url(#clip0_250_3453)">
<path d="M5.50389 78.1505C9.27463 78.1505 11.076 80.1847 11.076 84.0171V87.1039C11.076 90.9363 9.27463 92.9704 5.50389 92.9704H3.73744V101.891H0V78.1505H5.50389ZM3.73744 81.5429V89.5813H5.50389C6.69315 89.5813 7.33852 89.0731 7.33852 87.3429V83.7812C7.33852 82.051 6.69315 81.5429 5.50389 81.5429H3.73744Z" fill="#154565"/>
<path d="M24.4606 101.892H20.6899L20.0445 97.5849H15.4587L14.8134 101.892H11.382L15.1876 78.1521H20.6566L24.4622 101.892H24.4606ZM15.9329 94.3619H19.5339L17.7326 82.3565L15.9329 94.3619Z" fill="#154565"/>
<path d="M34.0065 101.892C33.9732 101.723 33.905 101.587 33.8701 101.451C33.7686 101.18 33.7004 100.806 33.7004 100.162C33.6671 99.8564 33.6671 99.4496 33.6671 98.9747V95.2436C33.6671 93.0385 32.9536 92.2249 31.2204 92.2249H29.9297V101.891H26.1923V78.1505H31.8309C35.738 78.1505 37.3681 79.9472 37.3681 83.6102V85.475C37.3681 87.9176 36.5531 89.5116 34.9214 90.2904C36.8242 91.0709 37.4014 92.8676 37.4014 95.3433V99.0064C37.4014 100.194 37.4347 100.974 37.8089 101.889H34.0033L34.0065 101.892ZM29.9297 81.5429V88.8341H31.3901C32.7823 88.8341 33.6323 88.2231 33.6323 86.3251V83.9854C33.6323 82.2552 33.0551 81.5429 31.7294 81.5429H29.9297Z" fill="#154565"/>
<path d="M51.9437 101.892H48.1729L47.5275 97.5849H42.9418L42.2964 101.892H38.865L42.6706 78.1521H48.1396L51.9452 101.892H51.9437ZM43.4175 94.3619H47.0185L45.2172 82.3565L43.4175 94.3619Z" fill="#154565"/>
<path d="M61.5924 95.0062L64.1406 78.1505H69.3385V101.891H65.8056V84.8655L63.2241 101.891H59.6912L56.9052 85.103V101.891H53.6434V78.1505H58.8413L61.5924 95.0062Z" fill="#154565"/>
<path d="M71.7504 83.8493C71.7504 80.0169 73.7547 77.8799 77.4239 77.8799C81.0932 77.8799 83.0975 80.0169 83.0975 83.8493V96.1951C83.0975 100.027 81.0932 102.165 77.4239 102.165C73.7547 102.165 71.7504 100.027 71.7504 96.1951V83.8493ZM75.4862 96.4309C75.4862 98.1611 76.2331 98.7706 77.4223 98.7706C78.6116 98.7706 79.3584 98.1595 79.3584 96.4309V83.6103C79.3584 81.8801 78.6116 81.2706 77.4223 81.2706C76.2331 81.2706 75.4862 81.8817 75.4862 83.6103V96.4309Z" fill="#154565"/>
<path d="M89.0755 78.1505V96.4641C89.0755 98.1943 89.8223 98.7705 91.0116 98.7705C92.2008 98.7705 92.9477 98.1943 92.9477 96.4641V78.1505H96.4806V96.2267C96.4806 100.059 94.5778 102.196 90.9085 102.196C87.2392 102.196 85.3364 100.059 85.3364 96.2267V78.1505H89.0739H89.0755Z" fill="#154565"/>
<path d="M102.359 84.6962V101.891H98.9955V78.1505H103.684L107.523 92.361V78.1505H110.853V101.891H107.014L102.36 84.6962H102.359Z" fill="#154565"/>
<path d="M112.448 78.1505H123.998V81.5413H120.091V101.891H116.354V81.5413H112.447V78.1505H112.448Z" fill="#154565"/>
<path d="M5.50389 78.1505C9.27463 78.1505 11.076 80.1847 11.076 84.0171V87.1039C11.076 90.9363 9.27463 92.9704 5.50389 92.9704H3.73744V101.891H0V78.1505H5.50389ZM3.73744 81.5429V89.5813H5.50389C6.69315 89.5813 7.33852 89.0731 7.33852 87.3429V83.7812C7.33852 82.051 6.69315 81.5429 5.50389 81.5429H3.73744Z" fill="#154565"/>
<path d="M24.4606 101.892H20.6899L20.0445 97.5849H15.4587L14.8134 101.892H11.382L15.1876 78.1521H20.6566L24.4622 101.892H24.4606ZM15.9329 94.3619H19.5339L17.7326 82.3565L15.9329 94.3619Z" fill="#154565"/>
<path d="M34.0065 101.892C33.9732 101.723 33.905 101.587 33.8701 101.451C33.7686 101.18 33.7004 100.806 33.7004 100.162C33.6671 99.8564 33.6671 99.4496 33.6671 98.9747V95.2436C33.6671 93.0385 32.9536 92.2249 31.2204 92.2249H29.9297V101.891H26.1923V78.1505H31.8309C35.738 78.1505 37.3681 79.9472 37.3681 83.6102V85.475C37.3681 87.9176 36.5531 89.5116 34.9214 90.2904C36.8242 91.0709 37.4014 92.8676 37.4014 95.3433V99.0064C37.4014 100.194 37.4347 100.974 37.8089 101.889H34.0033L34.0065 101.892ZM29.9297 81.5429V88.8341H31.3901C32.7823 88.8341 33.6323 88.2231 33.6323 86.3251V83.9854C33.6323 82.2552 33.0551 81.5429 31.7294 81.5429H29.9297Z" fill="#154565"/>
<path d="M51.9437 101.892H48.1729L47.5275 97.5849H42.9418L42.2964 101.892H38.865L42.6706 78.1521H48.1396L51.9452 101.892H51.9437ZM43.4175 94.3619H47.0185L45.2172 82.3565L43.4175 94.3619Z" fill="#154565"/>
<path d="M61.5924 95.0062L64.1406 78.1505H69.3385V101.891H65.8056V84.8655L63.2241 101.891H59.6912L56.9052 85.103V101.891H53.6434V78.1505H58.8413L61.5924 95.0062Z" fill="#154565"/>
<path d="M71.7504 83.8493C71.7504 80.0169 73.7547 77.8799 77.4239 77.8799C81.0932 77.8799 83.0975 80.0169 83.0975 83.8493V96.1951C83.0975 100.027 81.0932 102.165 77.4239 102.165C73.7547 102.165 71.7504 100.027 71.7504 96.1951V83.8493ZM75.4862 96.4309C75.4862 98.1611 76.2331 98.7706 77.4223 98.7706C78.6116 98.7706 79.3584 98.1595 79.3584 96.4309V83.6103C79.3584 81.8801 78.6116 81.2706 77.4223 81.2706C76.2331 81.2706 75.4862 81.8817 75.4862 83.6103V96.4309Z" fill="#154565"/>
<path d="M89.0755 78.1505V96.4641C89.0755 98.1943 89.8223 98.7705 91.0116 98.7705C92.2008 98.7705 92.9477 98.1943 92.9477 96.4641V78.1505H96.4806V96.2267C96.4806 100.059 94.5778 102.196 90.9085 102.196C87.2392 102.196 85.3364 100.059 85.3364 96.2267V78.1505H89.0739H89.0755Z" fill="#154565"/>
<path d="M102.359 84.6962V101.891H98.9955V78.1505H103.684L107.523 92.361V78.1505H110.853V101.891H107.014L102.36 84.6962H102.359Z" fill="#154565"/>
<path d="M112.448 78.1505H123.998V81.5413H120.091V101.891H116.354V81.5413H112.447V78.1505H112.448Z" fill="#154565"/>
<path d="M7.33217 110.103C8.16624 110.532 8.81002 111.143 9.26511 111.935C9.71862 112.728 9.94695 113.647 9.94695 114.694C9.94695 115.74 9.7202 116.655 9.26511 117.437C8.81002 118.219 8.16624 118.825 7.33217 119.254C6.49811 119.683 5.53243 119.897 4.43355 119.897H0.780151V109.46H4.43514C5.53401 109.46 6.49969 109.674 7.33376 110.103H7.33217ZM6.90562 117.22C7.50501 116.622 7.8047 115.78 7.8047 114.694C7.8047 113.608 7.50501 112.758 6.90562 112.145C6.30624 111.533 5.4579 111.225 4.35903 111.225H2.87642V118.118H4.35903C5.4579 118.118 6.30624 117.819 6.90562 117.22Z" fill="#154565"/>
<path d="M13.6162 109.46V119.897H11.5199V109.46H13.6162Z" fill="#154565"/>
<path d="M22.0933 117.907H17.9293L17.2395 119.895H15.0386L18.7982 109.445H21.2402L24.9998 119.895H22.783L22.0933 117.907ZM21.524 116.232L20.0113 111.867L18.4985 116.232H21.524Z" fill="#154565"/>
<path d="M33.6862 112.6C33.4467 112.161 33.1169 111.827 32.6983 111.598C32.2781 111.368 31.7897 111.254 31.23 111.254C30.61 111.254 30.0613 111.393 29.5825 111.672C29.1036 111.951 28.7294 112.349 28.4582 112.869C28.1886 113.386 28.0539 113.985 28.0539 114.662C28.0539 115.34 28.1902 115.968 28.4661 116.486C28.7405 117.003 29.1226 117.402 29.6126 117.683C30.101 117.961 30.6702 118.1 31.3204 118.1C32.1195 118.1 32.7728 117.888 33.2818 117.466C33.7908 117.041 34.1254 116.451 34.2856 115.694H30.6908V114.094H36.3517V115.917C36.2122 116.646 35.9125 117.318 35.4526 117.936C34.9928 118.553 34.4013 119.05 33.6783 119.424C32.9536 119.797 32.1433 119.984 31.2442 119.984C30.2358 119.984 29.324 119.758 28.5105 119.303C27.6971 118.851 27.0581 118.219 26.5935 117.412C26.1288 116.605 25.8973 115.686 25.8973 114.661C25.8973 113.635 26.1288 112.714 26.5935 111.901C27.0581 111.089 27.6971 110.456 28.5105 110.003C29.324 109.549 30.231 109.323 31.2284 109.323C32.4065 109.323 33.4293 109.609 34.2983 110.182C35.1672 110.755 35.7666 111.561 36.0948 112.596H33.683L33.6862 112.6Z" fill="#154565"/>
<path d="M46.8504 119.895H44.7542L40.0067 112.734V119.895H37.9104V109.445H40.0067L44.7542 116.622V109.445H46.8504V119.895Z" fill="#154565"/>
<path d="M51.0731 119.313C50.2549 118.855 49.6048 118.219 49.1259 117.407C48.647 116.595 48.4076 115.675 48.4076 114.648C48.4076 113.621 48.647 112.717 49.1259 111.905C49.6048 111.093 50.2549 110.458 51.0731 109.999C51.8913 109.541 52.7904 109.312 53.7688 109.312C54.7471 109.312 55.6589 109.541 56.4724 109.999C57.2858 110.458 57.9296 111.093 58.4053 111.905C58.8794 112.717 59.1173 113.632 59.1173 114.648C59.1173 115.664 58.8794 116.595 58.4053 117.407C57.9312 118.219 57.2842 118.855 56.466 119.313C55.6478 119.772 54.7487 120.002 53.7704 120.002C52.792 120.002 51.8929 119.772 51.0747 119.313H51.0731ZM55.4321 117.706C55.911 117.421 56.2852 117.016 56.5548 116.487C56.8244 115.959 56.9592 115.346 56.9592 114.648C56.9592 113.95 56.8244 113.339 56.5548 112.816C56.2852 112.292 55.911 111.892 55.4321 111.613C54.9533 111.335 54.3983 111.195 53.7688 111.195C53.1393 111.195 52.5827 111.335 52.0991 111.613C51.6138 111.894 51.238 112.294 50.9685 112.816C50.6989 113.34 50.5641 113.95 50.5641 114.648C50.5641 115.346 50.6989 115.959 50.9685 116.487C51.238 117.016 51.6154 117.421 52.0991 117.706C52.5827 117.99 53.1393 118.132 53.7688 118.132C54.3983 118.132 54.9517 117.99 55.4321 117.706Z" fill="#154565"/>
<path d="M62.3139 119.626C61.7304 119.378 61.2674 119.019 60.9281 118.55C60.5887 118.081 60.4143 117.529 60.4032 116.889H62.6501C62.6802 117.318 62.8325 117.657 63.1068 117.906C63.3811 118.156 63.7585 118.279 64.2374 118.279C64.7162 118.279 65.1111 118.162 65.3902 117.928C65.6692 117.694 65.8088 117.388 65.8088 117.008C65.8088 116.699 65.7136 116.445 65.5234 116.245C65.3331 116.046 65.0968 115.889 64.8114 115.773C64.526 115.658 64.1343 115.531 63.6364 115.392C62.9577 115.192 62.4059 114.996 61.9809 114.801C61.556 114.607 61.1929 114.314 60.8868 113.92C60.5824 113.526 60.4302 113 60.4302 112.343C60.4302 111.726 60.584 111.187 60.8948 110.728C61.204 110.271 61.6384 109.92 62.1982 109.674C62.7563 109.43 63.397 109.308 64.1153 109.308C65.1935 109.308 66.0704 109.57 66.7443 110.094C67.4182 110.618 67.7893 111.347 67.8606 112.284H65.5535C65.5329 111.925 65.3822 111.629 65.0968 111.395C64.8114 111.161 64.4356 111.043 63.9662 111.043C63.5571 111.043 63.2305 111.148 62.9847 111.357C62.7405 111.566 62.6184 111.87 62.6184 112.269C62.6184 112.549 62.7104 112.78 62.8959 112.964C63.0798 113.149 63.3097 113.298 63.5857 113.413C63.86 113.527 64.2469 113.66 64.7464 113.809C65.425 114.008 65.98 114.208 66.4097 114.407C66.8395 114.607 67.2073 114.906 67.5181 115.305C67.8273 115.704 67.9827 116.228 67.9827 116.875C67.9827 117.434 67.8384 117.952 67.5483 118.43C67.2581 118.908 66.8347 119.289 66.275 119.574C65.7152 119.859 65.0524 120 64.2834 120C63.5539 120 62.8975 119.875 62.3139 119.626Z" fill="#154565"/>
<path d="M76.9102 109.46V111.15H74.1241V119.896H72.0279V111.15H69.2418V109.46H76.9102Z" fill="#154565"/>
<path d="M80.5334 109.46V119.897H78.4371V109.46H80.5334Z" fill="#154565"/>
<path d="M82.7883 111.905C83.2529 111.093 83.8871 110.459 84.6911 110.007C85.495 109.554 86.3957 109.326 87.3947 109.326C88.5633 109.326 89.5861 109.625 90.4645 110.223C91.343 110.822 91.9567 111.65 92.3071 112.706H89.8953C89.6558 112.207 89.3181 111.833 88.8836 111.585C88.4491 111.335 87.9481 111.211 87.3788 111.211C86.7699 111.211 86.2276 111.354 85.7535 111.637C85.2794 111.922 84.9099 112.323 84.6451 112.84C84.3803 113.358 84.2487 113.967 84.2487 114.664C84.2487 115.36 84.3803 115.957 84.6451 116.479C84.9099 117.002 85.2794 117.407 85.7535 117.69C86.2276 117.975 86.7699 118.116 87.3788 118.116C87.9481 118.116 88.4507 117.99 88.8836 117.735C89.3181 117.48 89.6543 117.105 89.8953 116.606H92.3071C91.9567 117.673 91.3462 118.503 90.4725 119.095C89.5988 119.688 88.5728 119.984 87.3947 119.984C86.3957 119.984 85.495 119.758 84.6911 119.303C83.8871 118.851 83.2529 118.219 82.7883 117.412C82.3237 116.605 82.0922 115.686 82.0922 114.661C82.0922 113.635 82.3237 112.714 82.7883 111.901V111.905Z" fill="#154565"/>
<path d="M99.7645 118.237H103.209V119.896H97.6666V109.459H99.7629V118.235L99.7645 118.237Z" fill="#154565"/>
<path d="M110.953 117.907H106.789L106.099 119.895H103.898L107.658 109.445H110.1L113.86 119.895H111.643L110.953 117.907ZM110.384 116.232L108.871 111.867L107.358 116.232H110.384Z" fill="#154565"/>
<path d="M122.651 115.425C123.03 115.903 123.22 116.453 123.22 117.07C123.22 117.629 123.082 118.119 122.808 118.542C122.533 118.966 122.135 119.297 121.617 119.536C121.098 119.775 120.483 119.896 119.774 119.896H115.266V109.459H119.579C120.288 109.459 120.9 109.573 121.414 109.802C121.928 110.032 122.318 110.35 122.582 110.758C122.847 111.167 122.979 111.631 122.979 112.148C122.979 112.756 122.817 113.264 122.492 113.674C122.167 114.083 121.736 114.372 121.197 114.542C121.785 114.651 122.27 114.946 122.649 115.424L122.651 115.425ZM117.362 113.766H119.279C119.779 113.766 120.163 113.654 120.432 113.431C120.702 113.207 120.837 112.884 120.837 112.467C120.837 112.049 120.702 111.724 120.432 111.495C120.163 111.265 119.777 111.151 119.279 111.151H117.362V113.768V113.766ZM120.665 117.833C120.951 117.594 121.092 117.255 121.092 116.817C121.092 116.378 120.943 116.017 120.643 115.762C120.343 115.507 119.939 115.381 119.43 115.381H117.362V118.192H119.475C119.984 118.192 120.382 118.073 120.665 117.833Z" fill="#154565"/>
<path d="M89.3656 34.6801L63.3906 4.13318C63.0354 3.71211 62.5423 3.48257 61.9984 3.48257C61.4545 3.48257 60.9629 3.71211 60.6125 4.12685L50.5308 16.099L47.8605 13.8575L57.9422 1.88534C58.9539 0.687017 60.4317 0 62 0C63.5682 0 65.046 0.687017 66.0561 1.88534L92.0264 32.4275L89.3672 34.6817L89.3656 34.6801Z" fill="url(#paint0_linear_250_3453)"/>
<path d="M15.4857 54.6131C14.5153 54.4041 14.6168 51.3331 15.3351 51.2334H37.5457C38.524 51.4946 37.969 53.8548 38.1197 54.6606C36.8638 55.2194 35.6333 56.0678 35.0688 57.3817C34.9721 57.6081 34.6645 58.5294 34.6645 58.6988V62.6404H31.7912V54.8284L31.5756 54.6131H15.4841H15.4857Z" fill="#134363"/>
<path d="M42.1283 30.9126C43.2525 31.3336 44.3419 32.9625 44.5575 34.115C44.6558 34.6373 44.5322 35.2974 44.705 35.7106C44.8556 36.0699 45.7975 36.8852 46.1242 37.33C51.2285 44.2904 50.3738 54.6716 43.327 60.0411C42.8212 60.4258 40.5664 61.7919 40.0336 61.6859C39.6467 61.6099 38.8348 59.0834 38.505 58.5674C38.1784 58.0576 37.6376 57.6635 37.2491 57.206C44.7637 55.5154 46.8901 44.8983 41.8127 39.6427C39.6514 40.3678 37.6678 39.9435 35.96 38.4587L30.6036 44.5643C29.5681 44.8951 27.8556 43.1063 27.0326 42.432C26.0828 41.6547 23.9564 40.0322 23.2698 39.1884C22.6863 38.4698 23.6234 37.7606 24.0928 37.159C26.1383 34.5392 28.5311 31.9621 30.6622 29.3866C32.5016 27.1625 34.2934 24.883 36.0535 22.5955C36.4103 22.2631 37.6091 22.222 37.9595 22.0827C38.31 21.9434 39.6657 19.7398 40.227 19.4248C40.365 19.3473 40.6932 19.3583 40.8724 19.2839C41.4274 19.8316 46.0068 23.1607 46.0481 23.4915C46.1702 24.4476 44.0533 26.0101 43.7568 26.83C43.6489 27.1276 43.9042 27.4474 43.9153 27.7703C43.9581 29.1095 42.5342 29.776 42.1299 30.9157L42.1283 30.9126ZM42.7594 35.7882C43.1193 34.1039 42.0426 32.4481 40.3539 32.0887C38.6652 31.7294 37.005 32.8027 36.645 34.487C36.2851 36.1713 37.3617 37.8271 39.0505 38.1864C40.7392 38.5457 42.3994 37.4725 42.7594 35.7882Z" fill="#154565"/>
<path d="M28.3043 44.6909C27.2784 45.913 26.6251 48.0453 24.7397 46.8121C24.134 46.4164 22.4738 45.017 21.9901 44.4836C21.6952 44.1575 21.4526 43.7744 21.543 43.309L23.4949 40.8585L28.3043 44.6909Z" fill="#154565"/>
<path d="M48.0318 23.0451C47.7242 23.2303 47.2183 23.0784 46.9155 22.9248C46.0164 22.4689 42.4629 19.3599 41.5939 18.513C40.2509 17.2055 41.0167 16.5707 42.5945 16.5311L48.0207 20.9999C48.7437 21.4558 48.7295 22.6256 48.0318 23.0435V23.0451Z" fill="#154565"/>
<path d="M41.439 35.4945C41.6416 34.5463 41.0351 33.6135 40.0844 33.4111C39.1337 33.2087 38.1988 33.8133 37.9962 34.7615C37.7936 35.7097 38.4001 36.6425 39.3508 36.8449C40.3015 37.0473 41.2364 36.4428 41.439 35.4945Z" fill="#154565"/>
<path d="M49.3082 63.5712H15.408V70.4477H49.3082V63.5712Z" fill="#134363"/>
<path d="M44.4148 59.7705H34.9879V64.8377H44.4148V59.7705Z" fill="#134363"/>
<path d="M87.902 53.2945L86.9681 54.1477L73.5881 66.3889C72.865 67.0395 71.9184 67.2881 71.0241 67.1472C70.3549 67.0427 69.7159 66.7182 69.2212 66.18L68.1429 65.0054C67.8622 64.6999 67.6545 64.3532 67.5197 63.9875C67.0948 62.8415 67.3754 61.5038 68.3348 60.6269L68.5663 60.5366C68.5663 60.5366 80.8695 52.8623 87.8465 53.0206C87.9163 53.0222 87.902 53.2945 87.902 53.2945Z" fill="#D2222D"/>
<path d="M71.7757 67.4907C70.5024 67.4907 69.2323 66.9794 68.3047 65.9694C66.5525 64.0603 66.6825 61.0827 68.5948 59.3335L93.3758 36.6604C93.6026 36.453 93.9562 36.4673 94.1639 36.6952L99.7677 42.7992C99.8676 42.9084 99.9199 43.0525 99.9136 43.1997C99.9072 43.3469 99.8422 43.4862 99.7328 43.586L74.9518 66.2591C74.0496 67.0838 72.9111 67.4907 71.7741 67.4907H71.7757ZM93.7183 37.8571L69.348 60.1551C67.8892 61.4896 67.7893 63.7611 69.1276 65.2175C70.4644 66.6738 72.7398 66.7736 74.1986 65.4375L92.4165 48.7702L98.5689 43.1411L93.7183 37.8587V37.8571Z" fill="#134363"/>
<path d="M71.1144 62.148C71.505 62.148 71.8217 61.8319 71.8217 61.442C71.8217 61.0521 71.505 60.736 71.1144 60.736C70.7239 60.736 70.4072 61.0521 70.4072 61.442C70.4072 61.8319 70.7239 62.148 71.1144 62.148Z" fill="white"/>
<g opacity="0.4">
<path d="M71.1018 62.2398C71.3715 62.2398 71.5902 62.0215 71.5902 61.7522C71.5902 61.4829 71.3715 61.2646 71.1018 61.2646C70.8321 61.2646 70.6134 61.4829 70.6134 61.7522C70.6134 62.0215 70.8321 62.2398 71.1018 62.2398Z" fill="#31759B"/>
</g>
<path d="M76.2552 61.1238C76.5381 61.1238 76.7674 60.8949 76.7674 60.6125C76.7674 60.3301 76.5381 60.1012 76.2552 60.1012C75.9723 60.1012 75.743 60.3301 75.743 60.6125C75.743 60.8949 75.9723 61.1238 76.2552 61.1238Z" fill="white"/>
<g opacity="0.4">
<path d="M76.2441 61.1903C76.4394 61.1903 76.5977 61.0322 76.5977 60.8373C76.5977 60.6423 76.4394 60.4843 76.2441 60.4843C76.0488 60.4843 75.8905 60.6423 75.8905 60.8373C75.8905 61.0322 76.0488 61.1903 76.2441 61.1903Z" fill="#31759B"/>
</g>
<path d="M71.4935 65.3884C71.7115 65.3884 71.8883 65.212 71.8883 64.9943C71.8883 64.7766 71.7115 64.6001 71.4935 64.6001C71.2754 64.6001 71.0986 64.7766 71.0986 64.9943C71.0986 65.212 71.2754 65.3884 71.4935 65.3884Z" fill="white"/>
<g opacity="0.4">
<path d="M71.4871 65.4391C71.6377 65.4391 71.7598 65.3172 71.7598 65.1668C71.7598 65.0164 71.6377 64.8945 71.4871 64.8945C71.3365 64.8945 71.2144 65.0164 71.2144 65.1668C71.2144 65.3172 71.3365 65.4391 71.4871 65.4391Z" fill="#31759B"/>
</g>
<path d="M81.4864 57.8993C81.7316 57.8993 81.9303 57.7008 81.9303 57.4561C81.9303 57.2113 81.7316 57.0128 81.4864 57.0128C81.2411 57.0128 81.0424 57.2113 81.0424 57.4561C81.0424 57.7008 81.2411 57.8993 81.4864 57.8993Z" fill="white"/>
<g opacity="0.4">
<path d="M81.4768 57.9562C81.6458 57.9562 81.7829 57.8195 81.7829 57.6507C81.7829 57.482 81.6458 57.3452 81.4768 57.3452C81.3078 57.3452 81.1708 57.482 81.1708 57.6507C81.1708 57.8195 81.3078 57.9562 81.4768 57.9562Z" fill="#31759B"/>
</g>
<path d="M73.8926 50.4878C69.1355 50.6461 61.6686 55.0769 61.6686 55.0769C60.7314 55.87 60.8218 57.0319 61.5481 57.8234L62.2251 58.5595C62.5344 58.8966 62.9355 59.0993 63.3557 59.1658C63.9218 59.2544 64.5212 59.0945 64.9763 58.6782L73.7324 50.8028C73.7324 50.8028 73.9798 50.4831 73.891 50.4862L73.8926 50.4878Z" fill="#154565"/>
<path d="M63.8283 59.3826C63.0291 59.3826 62.2331 59.0612 61.6512 58.428C60.5523 57.2313 60.6332 55.3634 61.8335 54.2664L77.3763 40.0464C77.4445 39.9831 77.5381 39.9514 77.6285 39.9546C77.7204 39.9593 77.8092 39.9989 77.8711 40.067L81.3865 43.8946C81.5166 44.0371 81.507 44.2571 81.3643 44.3885L77.2479 48.156L65.8215 58.6101C65.2554 59.1277 64.5419 59.3826 63.8283 59.3826ZM77.5904 40.7967L62.3061 54.7808C61.3911 55.6182 61.3293 57.0429 62.1681 57.9563C63.0069 58.8697 64.434 58.9314 65.349 58.094L80.6333 44.1099L77.592 40.7967H77.5904Z" fill="#134363"/>
<path d="M63.4129 55.4362C63.6581 55.4362 63.8569 55.2377 63.8569 54.9929C63.8569 54.7481 63.6581 54.5497 63.4129 54.5497C63.1677 54.5497 62.9689 54.7481 62.9689 54.9929C62.9689 55.2377 63.1677 55.4362 63.4129 55.4362Z" fill="white"/>
<g opacity="0.4">
<path d="M63.4049 55.4931C63.5739 55.4931 63.711 55.3563 63.711 55.1876C63.711 55.0189 63.5739 54.8821 63.4049 54.8821C63.2359 54.8821 63.0989 55.0189 63.0989 55.1876C63.0989 55.3563 63.2359 55.4931 63.4049 55.4931Z" fill="#31759B"/>
</g>
<path d="M66.6366 55.3903C66.8144 55.3903 66.9585 55.2464 66.9585 55.0689C66.9585 54.8914 66.8144 54.7476 66.6366 54.7476C66.4588 54.7476 66.3147 54.8914 66.3147 55.0689C66.3147 55.2464 66.4588 55.3903 66.6366 55.3903Z" fill="white"/>
<g opacity="0.4">
<path d="M66.6302 55.4298C66.7528 55.4298 66.8522 55.3306 66.8522 55.2082C66.8522 55.0858 66.7528 54.9866 66.6302 54.9866C66.5076 54.9866 66.4082 55.0858 66.4082 55.2082C66.4082 55.3306 66.5076 55.4298 66.6302 55.4298Z" fill="#31759B"/>
</g>
<path d="M69.3608 52.5742C69.571 52.5742 69.7414 52.4041 69.7414 52.1942C69.7414 51.9844 69.571 51.8143 69.3608 51.8143C69.1506 51.8143 68.9802 51.9844 68.9802 52.1942C68.9802 52.4041 69.1506 52.5742 69.3608 52.5742Z" fill="white"/>
<g opacity="0.4">
<path d="M69.3528 52.6216C69.4973 52.6216 69.6145 52.5047 69.6145 52.3604C69.6145 52.2162 69.4973 52.0992 69.3528 52.0992C69.2083 52.0992 69.0912 52.2162 69.0912 52.3604C69.0912 52.5047 69.2083 52.6216 69.3528 52.6216Z" fill="#31759B"/>
</g>
<path d="M71.1113 48.7655C71.3566 48.7655 71.5553 48.5671 71.5553 48.3223C71.5553 48.0775 71.3566 47.879 71.1113 47.879C70.8661 47.879 70.6674 48.0775 70.6674 48.3223C70.6674 48.5671 70.8661 48.7655 71.1113 48.7655Z" fill="white"/>
<mask id="mask0_250_3453" style="mask-type:luminance" maskUnits="userSpaceOnUse" x="56" y="14" width="12" height="31">
<path d="M57.9248 16.6102H65.9563C66.2179 16.0071 65.7644 15.1143 66.5049 14.8167C68.3808 14.0616 67.4484 17.6059 67.1234 18.4512C66.6524 19.6781 65.6709 20.8859 64.7052 21.7629C64.48 21.9671 63.3479 22.7095 63.3463 22.9042C66.2163 24.7848 68.2333 27.4743 67.469 31.074C67.0155 33.2094 65.3347 35.147 63.4525 36.1728C63.4176 36.3184 63.4747 36.3438 63.554 36.434C63.8267 36.7458 64.553 37.1463 64.9145 37.4708C66.413 38.8148 67.5721 40.6178 67.7275 42.6773C67.7893 43.5036 67.8528 44.5215 66.7349 44.3996C65.9626 44.3157 66.0435 43.2915 66.061 42.728H57.9248C57.9328 43.3532 58.0929 44.3046 57.2509 44.3996C56.2821 44.5088 56.2202 43.7458 56.252 42.9828C56.3772 40.0195 58.2721 37.8793 60.6348 36.3279C58.6574 35.0315 56.891 33.2743 56.4073 30.8714C55.6875 27.2922 57.8123 24.8418 60.5333 22.9058L58.2895 20.8796C57.3239 19.7556 56.6151 18.4418 56.374 16.9632C56.2599 16.2699 55.976 14.8642 56.9449 14.7407C58.3831 14.5587 57.8012 16.6118 57.9264 16.6118L57.9248 16.6102ZM65.6423 17.7547H58.3403C58.353 18.0856 58.7954 19.0338 59.0713 19.1573L64.7353 19.1905L65.6423 17.7532V17.7547ZM63.7649 20.2511H60.1147C60.2954 20.5566 61.713 21.7771 61.9398 21.7771L63.0846 20.9761L63.7649 20.2511ZM64.1819 25.7662C63.5699 25.0112 62.7564 24.4144 61.9398 23.8888C61.139 24.4349 60.3049 25.0032 59.6976 25.7662H64.1835H64.1819ZM58.0279 28.576H65.9547L65.2031 26.9329L58.7224 26.906L58.0263 28.5745L58.0279 28.576ZM66.0594 29.7205H57.9233C57.8804 30.034 58.104 31.1943 58.3387 31.3352L65.5757 31.3716C65.839 31.2829 66.0435 30.0371 66.0594 29.7205ZM65.0176 32.5288H58.9682C59.2473 33.1208 61.5354 35.2452 62.046 35.2309C62.4583 35.2278 65.2063 32.6681 65.0176 32.5288ZM63.8695 38.8765C63.7364 38.5647 62.1221 37.2983 61.9556 37.3284C61.3436 37.8397 60.5919 38.2228 60.1147 38.8765H63.8695ZM65.747 41.5819C65.8231 41.2447 65.2269 40.1271 64.9446 40.04L58.9682 40.0733L58.1326 41.5803H65.747V41.5819Z" fill="white"/>
</mask>
<g mask="url(#mask0_250_3453)">
<path d="M58.196 40.04L58.1326 40.3725V40.04H58.196Z" fill="#862F43"/>
<path d="M58.3102 40.04L58.1326 40.9772V40.3725L58.196 40.04H58.3102Z" fill="#852F43"/>
<path d="M58.4243 40.04L58.1326 41.5819V40.9772L58.3102 40.04H58.4243Z" fill="#843043"/>
<path d="M58.5385 40.04L58.2467 41.5819H58.1326L58.4243 40.04H58.5385Z" fill="#833043"/>
<path d="M58.6528 40.04L58.361 41.5819H58.2468L58.5386 40.04H58.6528Z" fill="#823044"/>
<path d="M58.7669 40.04L58.4751 41.5819H58.361L58.6527 40.04H58.7669Z" fill="#813044"/>
<path d="M58.881 40.04L58.5893 41.5819H58.4751L58.7669 40.04H58.881Z" fill="#803044"/>
<path d="M58.9952 40.04L58.7034 41.5819H58.5892L58.881 40.04H58.9952Z" fill="#7F3045"/>
<path d="M59.1094 40.04L58.8177 41.5819H58.7035L58.9953 40.04H59.1094Z" fill="#7E3145"/>
<path d="M59.2236 40.04L58.9318 41.5819H58.8176L59.1094 40.04H59.2236Z" fill="#7D3145"/>
<path d="M59.3377 40.04L59.0475 41.5819H58.9318L59.2235 40.04H59.3377Z" fill="#7C3145"/>
<path d="M59.452 40.04L59.1618 41.5819H59.0476L59.3378 40.04H59.452Z" fill="#7B3146"/>
<path d="M59.5661 40.04L59.2759 41.5819H59.1617L59.4519 40.04H59.5661Z" fill="#7A3146"/>
<path d="M59.6802 40.04L59.39 41.5819H59.2759L59.5661 40.04H59.6802Z" fill="#793146"/>
<path d="M59.7944 40.04L59.5042 41.5819H59.39L59.6802 40.04H59.7944Z" fill="#783247"/>
<path d="M59.9086 40.04L59.6184 41.5819H59.5043L59.7944 40.04H59.9086Z" fill="#773247"/>
<path d="M60.0228 40.04L59.7326 41.5819H59.6184L59.9086 40.04H60.0228Z" fill="#763247"/>
<path d="M60.1369 40.04L59.8467 41.5819H59.7325L60.0227 40.04H60.1369Z" fill="#753247"/>
<path d="M60.251 40.04L59.9608 41.5819H59.8467L60.1369 40.04H60.251Z" fill="#743248"/>
<path d="M60.3653 40.04L60.0751 41.5819H59.9609L60.2511 40.04H60.3653Z" fill="#733348"/>
<path d="M60.4794 40.04L60.1892 41.5819H60.0751L60.3653 40.04H60.4794Z" fill="#713348"/>
<path d="M60.5936 40.04L60.3034 41.5819H60.1892L60.4794 40.04H60.5936Z" fill="#703349"/>
<path d="M60.7078 40.04L60.4176 41.5819H60.3035L60.5936 40.04H60.7078Z" fill="#6F3349"/>
<path d="M60.822 40.04L60.5318 41.5819H60.4176L60.7078 40.04H60.822Z" fill="#6E3349"/>
<path d="M60.9361 40.04L60.6459 41.5819H60.5317L60.8219 40.04H60.9361Z" fill="#6D3349"/>
<path d="M61.0518 40.04L60.76 41.5819H60.6459L60.9361 40.04H61.0518Z" fill="#6C344A"/>
<path d="M61.1661 40.04L60.8743 41.5819H60.7601L61.0519 40.04H61.1661Z" fill="#6B344A"/>
<path d="M61.2802 40.04L60.9884 41.5819H60.8743L61.166 40.04H61.2802Z" fill="#6A344A"/>
<path d="M61.3943 40.04L61.1026 41.5819H60.9884L61.2802 40.04H61.3943Z" fill="#69344B"/>
<path d="M61.5085 40.04L61.2167 41.5819H61.1025L61.3943 40.04H61.5085Z" fill="#68344B"/>
<path d="M61.6227 40.04L61.331 41.5819H61.2168L61.5086 40.04H61.6227Z" fill="#67344B"/>
<path d="M61.7369 40.04L61.4451 41.5819H61.3309L61.6227 40.04H61.7369Z" fill="#66354B"/>
<path d="M61.851 40.04L61.5592 41.5819H61.4451L61.7368 40.04H61.851Z" fill="#65354C"/>
<path d="M61.9653 40.04L61.6735 41.5819H61.5593L61.8511 40.04H61.9653Z" fill="#64354C"/>
<path d="M62.0794 40.04L61.7876 41.5819H61.6735L61.9652 40.04H62.0794Z" fill="#63354C"/>
<path d="M62.1935 40.04L61.9018 41.5819H61.7876L62.0794 40.04H62.1935Z" fill="#62354D"/>
<path d="M62.3077 40.04L62.0175 41.5819H61.9017L62.1935 40.04H62.3077Z" fill="#61354D"/>
<path d="M62.4219 40.04L62.1317 41.5819H62.0176L62.3078 40.04H62.4219Z" fill="#60364D"/>
<path d="M62.5361 40.04L62.2459 41.5819H62.1317L62.4219 40.04H62.5361Z" fill="#5F364D"/>
<path d="M62.6502 40.04L62.36 41.5819H62.2458L62.536 40.04H62.6502Z" fill="#5E364E"/>
<path d="M62.7643 40.04L62.4742 41.5819H62.36L62.6502 40.04H62.7643Z" fill="#5D364E"/>
<path d="M62.8786 40.04L62.5884 41.5819H62.4742L62.7644 40.04H62.8786Z" fill="#5C364E"/>
<path d="M62.9927 40.04L62.7025 41.5819H62.5884L62.8786 40.04H62.9927Z" fill="#5B364F"/>
<path d="M63.1069 40.04L62.8167 41.5819H62.7025L62.9927 40.04H63.1069Z" fill="#5A374F"/>
<path d="M63.221 40.04L62.9308 41.5819H62.8167L63.1068 40.04H63.221Z" fill="#59374F"/>
<path d="M63.3353 40.04L63.0451 41.5819H62.9309L63.2211 40.04H63.3353Z" fill="#58374F"/>
<path d="M63.4494 40.04L63.1592 41.5819H63.045L63.3352 40.04H63.4494Z" fill="#573750"/>
<path d="M63.5635 40.04L63.2733 41.5819H63.1592L63.4494 40.04H63.5635Z" fill="#563750"/>
<path d="M63.6778 40.04L63.3876 41.5819H63.2734L63.5636 40.04H63.6778Z" fill="#553850"/>
<path d="M63.7919 40.04L63.5017 41.5819H63.3876L63.6778 40.04H63.7919Z" fill="#543851"/>
<path d="M63.9061 40.04L63.6159 41.5819H63.5017L63.7919 40.04H63.9061Z" fill="#533851"/>
<path d="M64.0202 40.04L63.73 41.5819H63.6158L63.906 40.04H64.0202Z" fill="#523851"/>
<path d="M64.136 40.04L63.8443 41.5819H63.7301L64.0203 40.04H64.136Z" fill="#513851"/>
<path d="M64.2502 40.04L63.9584 41.5819H63.8442L64.136 40.04H64.2502Z" fill="#503852"/>
<path d="M64.3643 40.04L64.0725 41.5819H63.9584L64.2501 40.04H64.3643Z" fill="#4F3952"/>
<path d="M64.4784 40.04L64.1867 41.5819H64.0725L64.3643 40.04H64.4784Z" fill="#4E3952"/>
<path d="M64.5927 40.04L64.3009 41.5819H64.1868L64.4785 40.04H64.5927Z" fill="#4D3953"/>
<path d="M64.7068 40.04L64.4151 41.5819H64.3009L64.5927 40.04H64.7068Z" fill="#4C3953"/>
<path d="M64.821 40.04L64.5292 41.5819H64.415L64.7068 40.04H64.821Z" fill="#4B3953"/>
<path d="M64.9352 40.04L64.6435 41.5819H64.5293L64.8211 40.04H64.9352Z" fill="#4A3953"/>
<path d="M65.0494 40.04L64.7576 41.5819H64.6434L64.9352 40.04H65.0494Z" fill="#493A54"/>
<path d="M65.1635 40.04L64.8717 41.5819H64.7576L65.0493 40.04H65.1635Z" fill="#483A54"/>
<path d="M65.2776 40.04L64.9859 41.5819H64.8717L65.1635 40.04H65.2776Z" fill="#473A54"/>
<path d="M65.3919 40.04L65.1017 41.5819H64.986L65.2777 40.04H65.3919Z" fill="#463A55"/>
<path d="M65.506 40.04L65.2159 41.5819H65.1017L65.3919 40.04H65.506Z" fill="#453A55"/>
<path d="M65.6202 40.04L65.33 41.5819H65.2158L65.506 40.04H65.6202Z" fill="#443A55"/>
<path d="M65.7343 40.04L65.4441 41.5819H65.33L65.6201 40.04H65.7343Z" fill="#433B55"/>
<path d="M65.8232 40.1793L65.5584 41.5819H65.4442L65.7344 40.04H65.8232V40.1793Z" fill="#423B56"/>
<path d="M65.8232 40.784L65.6725 41.5818H65.5583L65.8232 40.1793V40.784Z" fill="#413B56"/>
<path d="M65.8231 41.3903L65.7867 41.5819H65.6725L65.8231 40.7841V41.3903Z" fill="#403B56"/>
<path d="M65.7866 41.5819L65.8231 41.3904V41.5819H65.7866Z" fill="#3F3B56"/>
<path d="M60.1972 37.2983L60.1147 37.74V37.2983H60.1972Z" fill="#793146"/>
<path d="M60.3114 37.2983L60.1147 38.3447V37.74L60.1972 37.2983H60.3114Z" fill="#783247"/>
<path d="M60.4271 37.2983L60.129 38.8766H60.1147V38.3447L60.3114 37.2983H60.4271Z" fill="#773247"/>
<path d="M60.5413 37.2983L60.2432 38.8766H60.129L60.4271 37.2983H60.5413Z" fill="#763247"/>
<path d="M60.6554 37.2983L60.3573 38.8766H60.2432L60.5413 37.2983H60.6554Z" fill="#753247"/>
<path d="M60.7696 37.2983L60.4715 38.8766H60.3573L60.6554 37.2983H60.7696Z" fill="#743248"/>
<path d="M60.8837 37.2983L60.5856 38.8766H60.4714L60.7695 37.2983H60.8837Z" fill="#733348"/>
<path d="M60.998 37.2983L60.6999 38.8766H60.5857L60.8838 37.2983H60.998Z" fill="#713348"/>
<path d="M61.1121 37.2983L60.814 38.8766H60.6998L60.9979 37.2983H61.1121Z" fill="#703349"/>
<path d="M61.2262 37.2983L60.9281 38.8766H60.814L61.1121 37.2983H61.2262Z" fill="#6F3349"/>
<path d="M61.3405 37.2983L61.0424 38.8766H60.9282L61.2263 37.2983H61.3405Z" fill="#6E3349"/>
<path d="M61.4546 37.2983L61.1565 38.8766H61.0424L61.3405 37.2983H61.4546Z" fill="#6D3349"/>
<path d="M61.5688 37.2983L61.2707 38.8766H61.1565L61.4546 37.2983H61.5688Z" fill="#6C344A"/>
<path d="M61.6829 37.2983L61.3848 38.8766H61.2706L61.5687 37.2983H61.6829Z" fill="#6B344A"/>
<path d="M61.7972 37.2983L61.4991 38.8766H61.3849L61.683 37.2983H61.7972Z" fill="#6A344A"/>
<path d="M61.9113 37.2983L61.6132 38.8766H61.499L61.7971 37.2983H61.9113Z" fill="#69344B"/>
<path d="M62.0254 37.2983L61.7273 38.8766H61.6132L61.9113 37.2983H62.0254Z" fill="#68344B"/>
<path d="M62.1396 37.2983L61.8415 38.8766H61.7273L62.0254 37.2983H62.1396Z" fill="#67344B"/>
<path d="M62.2538 37.2983L61.9557 38.8766H61.8416L62.1397 37.2983H62.2538Z" fill="#66354B"/>
<path d="M62.368 37.2983L62.0699 38.8766H61.9557L62.2538 37.2983H62.368Z" fill="#65354C"/>
<path d="M62.4821 37.2983L62.184 38.8766H62.0698L62.3679 37.2983H62.4821Z" fill="#64354C"/>
<path d="M62.5964 37.2983L62.2983 38.8766H62.1841L62.4822 37.2983H62.5964Z" fill="#63354C"/>
<path d="M62.7105 37.2983L62.4124 38.8766H62.2982L62.5963 37.2983H62.7105Z" fill="#62354D"/>
<path d="M62.8246 37.2983L62.5265 38.8766H62.4124L62.7105 37.2983H62.8246Z" fill="#61354D"/>
<path d="M62.9388 37.2983L62.6422 38.8766H62.5265L62.8246 37.2983H62.9388Z" fill="#60364D"/>
<path d="M63.053 37.2983L62.7565 38.8766H62.6423L62.9389 37.2983H63.053Z" fill="#5F364D"/>
<path d="M63.1672 37.2983L62.8706 38.8766H62.7565L63.053 37.2983H63.1672Z" fill="#5E364E"/>
<path d="M63.2813 37.2983L62.9848 38.8766H62.8706L63.1671 37.2983H63.2813Z" fill="#5D364E"/>
<path d="M63.3954 37.2983L63.0989 38.8766H62.9847L63.2813 37.2983H63.3954Z" fill="#5C364E"/>
<path d="M63.5113 37.2983L63.2132 38.8766H63.099L63.3955 37.2983H63.5113Z" fill="#5B364F"/>
<path d="M63.6254 37.2983L63.3273 38.8766H63.2131L63.5112 37.2983H63.6254Z" fill="#5A374F"/>
<path d="M63.7395 37.2983L63.4414 38.8766H63.3273L63.6254 37.2983H63.7395Z" fill="#59374F"/>
<path d="M63.8347 37.2983L63.8521 37.3015L63.5556 38.8766H63.4414L63.7395 37.2983H63.8347Z" fill="#58374F"/>
<path d="M63.8522 37.3015L63.8696 37.3047V37.8176L63.6698 38.8766H63.5557L63.8522 37.3015Z" fill="#573750"/>
<path d="M63.8696 38.4222L63.784 38.8765H63.6698L63.8696 37.8175V38.4222Z" fill="#563750"/>
<path d="M63.7839 38.8766L63.8696 38.4222V38.8766H63.7839Z" fill="#553850"/>
<path d="M59.0412 32.5288L58.9667 32.9246V32.5288H59.0412Z" fill="#8B2E41"/>
<path d="M59.1554 32.5288L58.9667 33.5293V32.9246L59.0412 32.5288H59.1554Z" fill="#8A2F41"/>
<path d="M59.2695 32.5288L58.9667 34.1355V33.5293L59.1554 32.5288H59.2695Z" fill="#892F42"/>
<path d="M59.3837 32.5288L58.9667 34.7402V34.1355L59.2695 32.5288H59.3837Z" fill="#882F42"/>
<path d="M59.4995 32.5288L59.0142 35.0948L58.9667 35.0853V34.7402L59.3837 32.5288H59.4995Z" fill="#872F42"/>
<path d="M59.6137 32.5288L59.1253 35.1154L59.0143 35.0948L59.4995 32.5288H59.6137Z" fill="#862F43"/>
<path d="M59.7278 32.5288L59.2347 35.136L59.1252 35.1154L59.6136 32.5288H59.7278Z" fill="#852F43"/>
<path d="M59.8419 32.5288L59.3456 35.1566L59.2346 35.136L59.7278 32.5288H59.8419Z" fill="#843043"/>
<path d="M59.9562 32.5288L59.4567 35.1771L59.3457 35.1566L59.842 32.5288H59.9562Z" fill="#833043"/>
<path d="M60.0703 32.5288L59.5661 35.1977L59.4567 35.1771L59.9562 32.5288H60.0703Z" fill="#823044"/>
<path d="M60.1845 32.5288L59.677 35.2183L59.566 35.1977L60.0703 32.5288H60.1845Z" fill="#813044"/>
<path d="M60.2987 32.5288L59.7865 35.2389L59.6771 35.2183L60.1845 32.5288H60.2987Z" fill="#803044"/>
<path d="M60.4128 32.5288L59.9007 35.2452H59.8214L59.7865 35.2389L60.2987 32.5288H60.4128Z" fill="#7F3045"/>
<path d="M60.527 32.5288L60.0148 35.2452H59.9006L60.4128 32.5288H60.527Z" fill="#7E3145"/>
<path d="M60.6411 32.5288L60.1289 35.2452H60.0148L60.5269 32.5288H60.6411Z" fill="#7D3145"/>
<path d="M60.7554 32.5288L60.2432 35.2452H60.129L60.6412 32.5288H60.7554Z" fill="#7C3145"/>
<path d="M60.8695 32.5288L60.3573 35.2452H60.2432L60.7553 32.5288H60.8695Z" fill="#7B3146"/>
<path d="M60.9836 32.5288L60.4715 35.2452H60.3573L60.8695 32.5288H60.9836Z" fill="#7A3146"/>
<path d="M61.0978 32.5288L60.5856 35.2452H60.4714L60.9836 32.5288H61.0978Z" fill="#793146"/>
<path d="M61.212 32.5288L60.6999 35.2452H60.5857L61.0979 32.5288H61.212Z" fill="#783247"/>
<path d="M61.3262 32.5288L60.814 35.2452H60.6998L61.212 32.5288H61.3262Z" fill="#773247"/>
<path d="M61.4403 32.5288L60.9281 35.2452H60.814L61.3261 32.5288H61.4403Z" fill="#763247"/>
<path d="M61.5546 32.5288L61.0424 35.2452H60.9282L61.4404 32.5288H61.5546Z" fill="#753247"/>
<path d="M61.6687 32.5288L61.1565 35.2452H61.0424L61.5545 32.5288H61.6687Z" fill="#743248"/>
<path d="M61.7828 32.5288L61.2707 35.2452H61.1565L61.6687 32.5288H61.7828Z" fill="#733348"/>
<path d="M61.897 32.5288L61.3848 35.2452H61.2706L61.7828 32.5288H61.897Z" fill="#713348"/>
<path d="M62.0112 32.5288L61.4991 35.2452H61.3849L61.8971 32.5288H62.0112Z" fill="#703349"/>
<path d="M62.1254 32.5288L61.6132 35.2452H61.499L62.0112 32.5288H62.1254Z" fill="#6F3349"/>
<path d="M62.2395 32.5288L61.7273 35.2452H61.6132L62.1253 32.5288H62.2395Z" fill="#6E3349"/>
<path d="M62.3536 32.5288L61.8415 35.2452H61.7273L62.2395 32.5288H62.3536Z" fill="#6D3349"/>
<path d="M62.4695 32.5288L61.9557 35.2452H61.8416L62.3537 32.5288H62.4695Z" fill="#6C344A"/>
<path d="M62.5836 32.5288L62.0699 35.2452H61.9557L62.4694 32.5288H62.5836Z" fill="#6B344A"/>
<path d="M62.6978 32.5288L62.184 35.2452H62.0698L62.5836 32.5288H62.6978Z" fill="#6A344A"/>
<path d="M62.812 32.5288L62.2983 35.2452H62.1841L62.6978 32.5288H62.812Z" fill="#69344B"/>
<path d="M62.9261 32.5288L62.4124 35.2452H62.2982L62.812 32.5288H62.9261Z" fill="#68344B"/>
<path d="M63.0403 32.5288L62.5265 35.2452H62.4124L62.9261 32.5288H63.0403Z" fill="#67344B"/>
<path d="M63.1544 32.5288L62.6407 35.2452H62.5265L63.0402 32.5288H63.1544Z" fill="#66354B"/>
<path d="M63.2687 32.5288L62.7549 35.2452H62.6407L63.1545 32.5288H63.2687Z" fill="#65354C"/>
<path d="M63.3828 32.5288L62.8706 35.2452H62.7549L63.2686 32.5288H63.3828Z" fill="#64354C"/>
<path d="M63.497 32.5288L62.9848 35.2452H62.8706L63.3828 32.5288H63.497Z" fill="#63354C"/>
<path d="M63.6111 32.5288L63.0989 35.2452H62.9847L63.4969 32.5288H63.6111Z" fill="#62354D"/>
<path d="M63.7253 32.5288L63.2132 35.2452H63.099L63.6112 32.5288H63.7253Z" fill="#61354D"/>
<path d="M63.8395 32.5288L63.3273 35.2452H63.2131L63.7253 32.5288H63.8395Z" fill="#60364D"/>
<path d="M63.9536 32.5288L63.4414 35.2452H63.3273L63.8394 32.5288H63.9536Z" fill="#5F364D"/>
<path d="M64.0678 32.5288L63.5556 35.2452H63.4414L63.9536 32.5288H64.0678Z" fill="#5E364E"/>
<path d="M64.182 32.5288L63.6698 35.2452H63.5557L64.0678 32.5288H64.182Z" fill="#5D364E"/>
<path d="M64.2961 32.5288L63.784 35.2452H63.6698L64.182 32.5288H64.2961Z" fill="#5C364E"/>
<path d="M64.4103 32.5288L63.8981 35.2452H63.7839L64.2961 32.5288H64.4103Z" fill="#5B364F"/>
<path d="M64.5245 32.5288L64.0124 35.2452H63.8982L64.4104 32.5288H64.5245Z" fill="#5A374F"/>
<path d="M64.6387 32.5288L64.1265 35.2452H64.0123L64.5245 32.5288H64.6387Z" fill="#59374F"/>
<path d="M64.7528 32.5288L64.2406 35.2452H64.1265L64.6386 32.5288H64.7528Z" fill="#58374F"/>
<path d="M64.8669 32.5288L64.3548 35.2452H64.2406L64.7528 32.5288H64.8669Z" fill="#573750"/>
<path d="M64.9812 32.5288L64.469 35.2452H64.3549L64.867 32.5288H64.9812Z" fill="#563750"/>
<path d="M65.0953 32.5288L64.5832 35.2452H64.469L64.9812 32.5288H65.0953Z" fill="#553850"/>
<path d="M65.2047 32.5557L64.6973 35.2452H64.5831L65.0953 32.5288H65.2047V32.5557Z" fill="#543851"/>
<path d="M65.2047 33.1619L64.8114 35.2452H64.6973L65.2047 32.5557V33.1619Z" fill="#533851"/>
<path d="M65.2048 33.7667L64.9257 35.2452H64.8115L65.2048 33.162V33.7667Z" fill="#523851"/>
<path d="M65.2047 34.3714L65.0398 35.2452H64.9257L65.2047 33.7667V34.3714Z" fill="#513851"/>
<path d="M65.2047 34.9776L65.154 35.2451H65.0398L65.2047 34.3713V34.9776Z" fill="#503852"/>
<path d="M65.1541 35.2452L65.2048 34.9777V35.2452H65.1541Z" fill="#4F3952"/>
<path d="M57.9725 29.7206L57.8805 30.2066V29.7206H57.9725Z" fill="#992C3D"/>
<path d="M58.0866 29.7206L57.8805 30.8113V30.2066L57.9725 29.7206H58.0866Z" fill="#982C3D"/>
<path d="M58.2008 29.7206L57.89 31.3701H57.8805V30.8113L58.0866 29.7206H58.2008Z" fill="#972C3E"/>
<path d="M58.315 29.7206L58.0042 31.3701H57.89L58.2008 29.7206H58.315Z" fill="#962C3E"/>
<path d="M58.4291 29.7206L58.1183 31.3701H58.0042L58.3149 29.7206H58.4291Z" fill="#952D3E"/>
<path d="M58.5433 29.7206L58.2325 31.3701H58.1183L58.4291 29.7206H58.5433Z" fill="#942D3F"/>
<path d="M58.6575 29.7206L58.3467 31.3701H58.2325L58.5433 29.7206H58.6575Z" fill="#932D3F"/>
<path d="M58.7716 29.7206L58.4608 31.3701H58.3467L58.6575 29.7206H58.7716Z" fill="#922D3F"/>
<path d="M58.8874 29.7206L58.575 31.3701H58.4608L58.7716 29.7206H58.8874Z" fill="#912D3F"/>
<path d="M59.0016 29.7206L58.6892 31.3701H58.5751L58.8875 29.7206H59.0016Z" fill="#902D40"/>
<path d="M59.1158 29.7206L58.8034 31.3701H58.6892L59.0016 29.7206H59.1158Z" fill="#8F2E40"/>
<path d="M59.2299 29.7206L58.9175 31.3701H58.8033L59.1157 29.7206H59.2299Z" fill="#8E2E40"/>
<path d="M59.344 29.7206L59.0316 31.3701H58.9175L59.2299 29.7206H59.344Z" fill="#8D2E41"/>
<path d="M59.4583 29.7206L59.1459 31.3701H59.0317L59.3441 29.7206H59.4583Z" fill="#8C2E41"/>
<path d="M59.5724 29.7206L59.26 31.3701H59.1459L59.4583 29.7206H59.5724Z" fill="#8B2E41"/>
<path d="M59.6866 29.7206L59.3742 31.3701H59.26L59.5724 29.7206H59.6866Z" fill="#8A2F41"/>
<path d="M59.8007 29.7206L59.4883 31.3701H59.3741L59.6865 29.7206H59.8007Z" fill="#892F42"/>
<path d="M59.915 29.7206L59.6026 31.3701H59.4884L59.8008 29.7206H59.915Z" fill="#882F42"/>
<path d="M60.0291 29.7206L59.7167 31.3701H59.6025L59.9149 29.7206H60.0291Z" fill="#872F42"/>
<path d="M60.1432 29.7206L59.8308 31.3701H59.7167L60.0291 29.7206H60.1432Z" fill="#862F43"/>
<path d="M60.2575 29.7206L59.9467 31.3701H59.8309L60.1433 29.7206H60.2575Z" fill="#852F43"/>
<path d="M60.3716 29.7206L60.0608 31.3701H59.9467L60.2575 29.7206H60.3716Z" fill="#843043"/>
<path d="M60.4858 29.7206L60.175 31.3701H60.0608L60.3716 29.7206H60.4858Z" fill="#833043"/>
<path d="M60.5999 29.7206L60.2891 31.3701H60.1749L60.4857 29.7206H60.5999Z" fill="#823044"/>
<path d="M60.7141 29.7206L60.4034 31.3701H60.2892L60.6 29.7206H60.7141Z" fill="#813044"/>
<path d="M60.8283 29.7206L60.5175 31.3701H60.4033L60.7141 29.7206H60.8283Z" fill="#803044"/>
<path d="M60.9424 29.7206L60.6316 31.3701H60.5175L60.8282 29.7206H60.9424Z" fill="#7F3045"/>
<path d="M61.0566 29.7206L60.7458 31.3701H60.6316L60.9424 29.7206H61.0566Z" fill="#7E3145"/>
<path d="M61.1708 29.7206L60.86 31.3701H60.7458L61.0566 29.7206H61.1708Z" fill="#7D3145"/>
<path d="M61.2849 29.7206L60.9742 31.3701H60.86L61.1708 29.7206H61.2849Z" fill="#7C3145"/>
<path d="M61.3991 29.7206L61.0883 31.3701H60.9741L61.2849 29.7206H61.3991Z" fill="#7B3146"/>
<path d="M61.5133 29.7206L61.2025 31.3701H61.0884L61.3992 29.7206H61.5133Z" fill="#7A3146"/>
<path d="M61.6275 29.7206L61.3167 31.3701H61.2025L61.5133 29.7206H61.6275Z" fill="#793146"/>
<path d="M61.7416 29.7206L61.4308 31.3701H61.3167L61.6274 29.7206H61.7416Z" fill="#783247"/>
<path d="M61.8557 29.7206L61.545 31.3701H61.4308L61.7416 29.7206H61.8557Z" fill="#773247"/>
<path d="M61.9716 29.7206L61.6592 31.3701H61.545L61.8558 29.7206H61.9716Z" fill="#763247"/>
<path d="M62.0857 29.7206L61.7733 31.3701H61.6592L61.9716 29.7206H62.0857Z" fill="#753247"/>
<path d="M62.1999 29.7206L61.8875 31.3701H61.7733L62.0857 29.7206H62.1999Z" fill="#743248"/>
<path d="M62.314 29.7206L62.0016 31.3701H61.8875L62.1998 29.7206H62.314Z" fill="#733348"/>
<path d="M62.4283 29.7206L62.1159 31.3701H62.0017L62.3141 29.7206H62.4283Z" fill="#713348"/>
<path d="M62.5424 29.7206L62.23 31.3701H62.1158L62.4282 29.7206H62.5424Z" fill="#703349"/>
<path d="M62.6565 29.7206L62.3441 31.3701H62.23L62.5424 29.7206H62.6565Z" fill="#6F3349"/>
<path d="M62.7708 29.7206L62.4584 31.3701H62.3442L62.6566 29.7206H62.7708Z" fill="#6E3349"/>
<path d="M62.8849 29.7206L62.5725 31.3701H62.4584L62.7707 29.7206H62.8849Z" fill="#6D3349"/>
<path d="M62.9991 29.7206L62.6867 31.3701H62.5725L62.8849 29.7206H62.9991Z" fill="#6C344A"/>
<path d="M63.1132 29.7206L62.8008 31.3701H62.6866L62.999 29.7206H63.1132Z" fill="#6B344A"/>
<path d="M63.2275 29.7206L62.9151 31.3701H62.8009L63.1133 29.7206H63.2275Z" fill="#6A344A"/>
<path d="M63.3416 29.7206L63.0308 31.3701H62.915L63.2274 29.7206H63.3416Z" fill="#69344B"/>
<path d="M63.4557 29.7206L63.1449 31.3701H63.0308L63.3416 29.7206H63.4557Z" fill="#68344B"/>
<path d="M63.5699 29.7206L63.2591 31.3701H63.1449L63.4557 29.7206H63.5699Z" fill="#67344B"/>
<path d="M63.6841 29.7206L63.3733 31.3701H63.2592L63.5699 29.7206H63.6841Z" fill="#66354B"/>
<path d="M63.7983 29.7206L63.4875 31.3701H63.3733L63.6841 29.7206H63.7983Z" fill="#65354C"/>
<path d="M63.9124 29.7206L63.6016 31.3701H63.4874L63.7982 29.7206H63.9124Z" fill="#64354C"/>
<path d="M64.0265 29.7206L63.7157 31.3701H63.6016L63.9124 29.7206H64.0265Z" fill="#63354C"/>
<path d="M64.1408 29.7206L63.83 31.3701H63.7158L64.0266 29.7206H64.1408Z" fill="#62354D"/>
<path d="M64.2549 29.7206L63.9441 31.3701H63.83L64.1407 29.7206H64.2549Z" fill="#61354D"/>
<path d="M64.3691 29.7206L64.0583 31.3701H63.9441L64.2549 29.7206H64.3691Z" fill="#60364D"/>
<path d="M64.4833 29.7206L64.1725 31.3701H64.0583L64.3691 29.7206H64.4833Z" fill="#5F364D"/>
<path d="M64.5974 29.7206L64.2867 31.3701H64.1725L64.4833 29.7206H64.5974Z" fill="#5E364E"/>
<path d="M64.7116 29.7206L64.4008 31.3701H64.2866L64.5974 29.7206H64.7116Z" fill="#5D364E"/>
<path d="M64.8257 29.7206L64.5149 31.3701H64.4008L64.7115 29.7206H64.8257Z" fill="#5C364E"/>
<path d="M64.9416 29.7206L64.6292 31.3701H64.515L64.8258 29.7206H64.9416Z" fill="#5B364F"/>
<path d="M65.0557 29.7206L64.7433 31.3701H64.6292L64.9415 29.7206H65.0557Z" fill="#5A374F"/>
<path d="M65.1698 29.7206L64.8575 31.3701H64.7433L65.0557 29.7206H65.1698Z" fill="#59374F"/>
<path d="M65.284 29.7206L64.9716 31.3701H64.8574L65.1698 29.7206H65.284Z" fill="#58374F"/>
<path d="M65.3982 29.7206L65.0858 31.3701H64.9717L65.2841 29.7206H65.3982Z" fill="#573750"/>
<path d="M65.5124 29.7206L65.2 31.3701H65.0858L65.3982 29.7206H65.5124Z" fill="#563750"/>
<path d="M65.6265 29.7206L65.3141 31.3701H65.2L65.5123 29.7206H65.6265Z" fill="#553850"/>
<path d="M65.7408 29.7206L65.4284 31.3701H65.3142L65.6266 29.7206H65.7408Z" fill="#543851"/>
<path d="M65.8549 29.7206L65.5425 31.3701H65.4283L65.7407 29.7206H65.8549Z" fill="#533851"/>
<path d="M65.969 29.7206L65.6566 31.3701H65.5425L65.8549 29.7206H65.969Z" fill="#523851"/>
<path d="M66.0594 29.8425L65.7708 31.3701H65.6566L65.969 29.7206H66.0594V29.8425Z" fill="#513851"/>
<path d="M66.0595 30.4471L65.885 31.37H65.7709L66.0595 29.8424V30.4471Z" fill="#503852"/>
<path d="M66.0594 31.0534L65.9992 31.37H65.885L66.0594 30.4471V31.0534Z" fill="#4F3952"/>
<path d="M65.9991 31.3701L66.0594 31.0535V31.3701H65.9991Z" fill="#4E3952"/>
<path d="M58.047 26.906L58.028 27.0042V26.906H58.047Z" fill="#9D2B3C"/>
<path d="M58.1612 26.906L58.028 27.6089V27.0042L58.047 26.906H58.1612Z" fill="#9C2B3C"/>
<path d="M58.2753 26.906L58.028 28.2151V27.6089L58.1612 26.906H58.2753Z" fill="#9B2C3D"/>
<path d="M58.3895 26.906L58.0739 28.5761H58.028V28.2151L58.2753 26.906H58.3895Z" fill="#9A2C3D"/>
<path d="M58.5037 26.906L58.1881 28.5761H58.074L58.3895 26.906H58.5037Z" fill="#992C3D"/>
<path d="M58.6178 26.906L58.3023 28.5761H58.1881L58.5037 26.906H58.6178Z" fill="#982C3D"/>
<path d="M58.732 26.906L58.418 28.5761H58.3022L58.6178 26.906H58.732Z" fill="#972C3E"/>
<path d="M58.8462 26.906L58.5323 28.5761H58.4181L58.7321 26.906H58.8462Z" fill="#962C3E"/>
<path d="M58.9604 26.906L58.6464 28.5761H58.5322L58.8462 26.906H58.9604Z" fill="#952D3E"/>
<path d="M59.0745 26.906L58.7605 28.5761H58.6464L58.9603 26.906H59.0745Z" fill="#942D3F"/>
<path d="M59.1886 26.906L58.8747 28.5761H58.7605L59.0745 26.906H59.1886Z" fill="#932D3F"/>
<path d="M59.3029 26.906L58.9889 28.5761H58.8748L59.1887 26.906H59.3029Z" fill="#922D3F"/>
<path d="M59.417 26.906L59.1031 28.5761H58.9889L59.3029 26.906H59.417Z" fill="#912D3F"/>
<path d="M59.5312 26.906L59.2172 28.5761H59.103L59.417 26.906H59.5312Z" fill="#902D40"/>
<path d="M59.6453 26.906L59.3313 28.5761H59.2172L59.5311 26.906H59.6453Z" fill="#8F2E40"/>
<path d="M59.7596 26.906L59.4456 28.5761H59.3314L59.6454 26.906H59.7596Z" fill="#8E2E40"/>
<path d="M59.8753 26.906L59.5597 28.5761H59.4456L59.7595 26.906H59.8753Z" fill="#8D2E41"/>
<path d="M59.9894 26.906L59.6739 28.5761H59.5597L59.8752 26.906H59.9894Z" fill="#8C2E41"/>
<path d="M60.1037 26.906L59.7881 28.5761H59.674L59.9895 26.906H60.1037Z" fill="#8B2E41"/>
<path d="M60.2178 26.906L59.9023 28.5761H59.7881L60.1036 26.906H60.2178Z" fill="#8A2F41"/>
<path d="M60.3319 26.906L60.0164 28.5761H59.9022L60.2178 26.906H60.3319Z" fill="#892F42"/>
<path d="M60.4461 26.906L60.1305 28.5761H60.0164L60.3319 26.906H60.4461Z" fill="#882F42"/>
<path d="M60.5603 26.906L60.2448 28.5761H60.1306L60.4462 26.906H60.5603Z" fill="#872F42"/>
<path d="M60.6745 26.906L60.3589 28.5761H60.2448L60.5603 26.906H60.6745Z" fill="#862F43"/>
<path d="M60.7886 26.906L60.4731 28.5761H60.3589L60.6744 26.906H60.7886Z" fill="#852F43"/>
<path d="M60.9027 26.906L60.5872 28.5761H60.473L60.7886 26.906H60.9027Z" fill="#843043"/>
<path d="M61.017 26.906L60.7014 28.5761H60.5873L60.9028 26.906H61.017Z" fill="#833043"/>
<path d="M61.1311 26.906L60.8156 28.5761H60.7014L61.017 26.906H61.1311Z" fill="#823044"/>
<path d="M61.2453 26.906L60.9297 28.5761H60.8156L61.1311 26.906H61.2453Z" fill="#813044"/>
<path d="M61.3595 26.906L61.044 28.5761H60.9298L61.2454 26.906H61.3595Z" fill="#803044"/>
<path d="M61.4737 26.906L61.1581 28.5761H61.0439L61.3595 26.906H61.4737Z" fill="#7F3045"/>
<path d="M61.5878 26.906L61.2723 28.5761H61.1581L61.4736 26.906H61.5878Z" fill="#7E3145"/>
<path d="M61.7019 26.906L61.3864 28.5761H61.2722L61.5878 26.906H61.7019Z" fill="#7D3145"/>
<path d="M61.8162 26.906L61.5022 28.5761H61.3865L61.702 26.906H61.8162Z" fill="#7C3145"/>
<path d="M61.9303 26.906L61.6164 28.5761H61.5022L61.8162 26.906H61.9303Z" fill="#7B3146"/>
<path d="M62.0445 26.906L61.7305 28.5761H61.6163L61.9303 26.906H62.0445Z" fill="#7A3146"/>
<path d="M62.1586 26.906L61.8446 28.5761H61.7305L62.0444 26.906H62.1586Z" fill="#793146"/>
<path d="M62.2729 26.906L61.9589 28.5761H61.8447L62.1587 26.906H62.2729Z" fill="#783247"/>
<path d="M62.387 26.906L62.073 28.5761H61.9589L62.2728 26.906H62.387Z" fill="#773247"/>
<path d="M62.5011 26.906L62.1872 28.5761H62.073L62.387 26.906H62.5011Z" fill="#763247"/>
<path d="M62.6153 26.906L62.3013 28.5761H62.1871L62.5011 26.906H62.6153Z" fill="#753247"/>
<path d="M62.7295 26.906L62.4156 28.5761H62.3014L62.6154 26.906H62.7295Z" fill="#743248"/>
<path d="M62.8452 26.906L62.5297 28.5761H62.4155L62.7295 26.906H62.8452Z" fill="#733348"/>
<path d="M62.9594 26.906L62.6438 28.5761H62.5297L62.8452 26.906H62.9594Z" fill="#713348"/>
<path d="M63.0736 26.906L62.7581 28.5761H62.6439L62.9595 26.906H63.0736Z" fill="#703349"/>
<path d="M63.1878 26.906L62.8722 28.5761H62.7581L63.0736 26.906H63.1878Z" fill="#6F3349"/>
<path d="M63.3019 26.906L62.9864 28.5761H62.8722L63.1877 26.906H63.3019Z" fill="#6E3349"/>
<path d="M63.416 26.906L63.1005 28.5761H62.9863L63.3019 26.906H63.416Z" fill="#6D3349"/>
<path d="M63.5303 26.906L63.2148 28.5761H63.1006L63.4161 26.906H63.5303Z" fill="#6C344A"/>
<path d="M63.6444 26.906L63.3289 28.5761H63.2147L63.5303 26.906H63.6444Z" fill="#6B344A"/>
<path d="M63.7586 26.906L63.443 28.5761H63.3289L63.6444 26.906H63.7586Z" fill="#6A344A"/>
<path d="M63.8727 26.906L63.5572 28.5761H63.443L63.7585 26.906H63.8727Z" fill="#69344B"/>
<path d="M63.987 26.906L63.6714 28.5761H63.5573L63.8728 26.906H63.987Z" fill="#68344B"/>
<path d="M64.1011 26.906L63.7856 28.5761H63.6714L63.9869 26.906H64.1011Z" fill="#67344B"/>
<path d="M64.2152 26.906L63.8997 28.5761H63.7855L64.1011 26.906H64.2152Z" fill="#66354B"/>
<path d="M64.3295 26.906L64.0139 28.5761H63.8998L64.2153 26.906H64.3295Z" fill="#65354C"/>
<path d="M64.4436 26.906L64.1281 28.5761H64.0139L64.3295 26.906H64.4436Z" fill="#64354C"/>
<path d="M64.5578 26.906L64.2422 28.5761H64.1281L64.4436 26.906H64.5578Z" fill="#63354C"/>
<path d="M64.6719 26.906L64.3564 28.5761H64.2422L64.5577 26.906H64.6719Z" fill="#62354D"/>
<path d="M64.7862 26.906L64.4722 28.5761H64.3564L64.672 26.906H64.7862Z" fill="#61354D"/>
<path d="M64.9003 26.906L64.5863 28.5761H64.4722L64.7861 26.906H64.9003Z" fill="#60364D"/>
<path d="M65.0144 26.906L64.7005 28.5761H64.5863L64.9003 26.906H65.0144Z" fill="#5F364D"/>
<path d="M65.1286 26.906L64.8146 28.5761H64.7004L65.0144 26.906H65.1286Z" fill="#5E364E"/>
<path d="M65.2428 26.906L64.9289 28.5761H64.8147L65.1287 26.906H65.2428Z" fill="#5D364E"/>
<path d="M65.357 26.906L65.043 28.5761H64.9288L65.2428 26.906H65.357Z" fill="#5C364E"/>
<path d="M65.4711 26.906L65.1571 28.5761H65.043L65.3569 26.906H65.4711Z" fill="#5B364F"/>
<path d="M65.5854 26.906L65.2714 28.5761H65.1572L65.4712 26.906H65.5854Z" fill="#5A374F"/>
<path d="M65.6995 26.906L65.3855 28.5761H65.2714L65.5853 26.906H65.6995Z" fill="#59374F"/>
<path d="M65.8136 26.906L65.4997 28.5761H65.3855L65.6995 26.906H65.8136Z" fill="#58374F"/>
<path d="M65.9294 26.906L65.6138 28.5761H65.4996L65.8136 26.906H65.9294Z" fill="#573750"/>
<path d="M65.9564 27.3682L65.7281 28.5761H65.6139L65.9294 26.906H65.9564V27.3682Z" fill="#563750"/>
<path d="M65.9564 27.9746L65.8422 28.5761H65.728L65.9564 27.3683V27.9746Z" fill="#553850"/>
<path d="M65.8422 28.576L65.9563 27.9745V28.576H65.8422Z" fill="#543851"/>
<path d="M59.7579 23.8888L59.6976 24.2133V23.8888H59.7579Z" fill="#932D3F"/>
<path d="M59.8721 23.8888L59.6976 24.8196V24.2133L59.7579 23.8888H59.8721Z" fill="#922D3F"/>
<path d="M59.9862 23.8888L59.6976 25.4243V24.8196L59.8721 23.8888H59.9862Z" fill="#912D3F"/>
<path d="M60.102 23.8888L59.7468 25.7662H59.6976V25.4243L59.9862 23.8888H60.102Z" fill="#902D40"/>
<path d="M60.2162 23.8888L59.861 25.7662H59.7468L60.102 23.8888H60.2162Z" fill="#8F2E40"/>
<path d="M60.3303 23.8888L59.9751 25.7662H59.861L60.2162 23.8888H60.3303Z" fill="#8E2E40"/>
<path d="M60.4446 23.8888L60.0894 25.7662H59.9752L60.3304 23.8888H60.4446Z" fill="#8D2E41"/>
<path d="M60.5587 23.8888L60.2035 25.7662H60.0894L60.4445 23.8888H60.5587Z" fill="#8C2E41"/>
<path d="M60.6729 23.8888L60.3177 25.7662H60.2035L60.5587 23.8888H60.6729Z" fill="#8B2E41"/>
<path d="M60.787 23.8888L60.4318 25.7662H60.3176L60.6728 23.8888H60.787Z" fill="#8A2F41"/>
<path d="M60.9012 23.8888L60.5461 25.7662H60.4319L60.7871 23.8888H60.9012Z" fill="#892F42"/>
<path d="M61.0154 23.8888L60.6602 25.7662H60.546L60.9012 23.8888H61.0154Z" fill="#882F42"/>
<path d="M61.1295 23.8888L60.7743 25.7662H60.6602L61.0154 23.8888H61.1295Z" fill="#872F42"/>
<path d="M61.2437 23.8888L60.89 25.7662H60.7743L61.1295 23.8888H61.2437Z" fill="#862F43"/>
<path d="M61.3579 23.8888L61.0043 25.7662H60.8901L61.2437 23.8888H61.3579Z" fill="#852F43"/>
<path d="M61.472 23.8888L61.1184 25.7662H61.0043L61.3579 23.8888H61.472Z" fill="#843043"/>
<path d="M61.5862 23.8888L61.2326 25.7662H61.1184L61.472 23.8888H61.5862Z" fill="#833043"/>
<path d="M61.7004 23.8888L61.3468 25.7662H61.2327L61.5863 23.8888H61.7004Z" fill="#823044"/>
<path d="M61.8146 23.8888L61.461 25.7662H61.3468L61.7004 23.8888H61.8146Z" fill="#813044"/>
<path d="M61.9287 23.8888L61.5751 25.7662H61.4609L61.8145 23.8888H61.9287Z" fill="#803044"/>
<path d="M62.0428 23.8888L61.6892 25.7662H61.5751L61.9287 23.8888H62.0428Z" fill="#7F3045"/>
<path d="M62.1571 23.8888L61.8035 25.7662H61.6893L62.0429 23.8888H62.1571Z" fill="#7E3145"/>
<path d="M62.2712 23.8888L61.9176 25.7662H61.8035L62.1571 23.8888H62.2712Z" fill="#7D3145"/>
<path d="M62.3854 23.8888L62.0318 25.7662H61.9176L62.2712 23.8888H62.3854Z" fill="#7C3145"/>
<path d="M62.4995 23.8888L62.1459 25.7662H62.0317L62.3853 23.8888H62.4995Z" fill="#7B3146"/>
<path d="M62.6138 23.8888L62.2602 25.7662H62.146L62.4996 23.8888H62.6138Z" fill="#7A3146"/>
<path d="M62.7279 23.8888L62.3743 25.7662H62.2601L62.6137 23.8888H62.7279Z" fill="#793146"/>
<path d="M62.842 23.8888L62.4884 25.7662H62.3743L62.7279 23.8888H62.842Z" fill="#783247"/>
<path d="M62.9563 23.8888L62.6027 25.7662H62.4885L62.8421 23.8888H62.9563Z" fill="#773247"/>
<path d="M63.072 23.8888L62.7168 25.7662H62.6027L62.9563 23.8888H63.072Z" fill="#763247"/>
<path d="M63.1862 23.8888L62.831 25.7662H62.7168L63.072 23.8888H63.1862Z" fill="#753247"/>
<path d="M63.3003 23.8888L62.9451 25.7662H62.8309L63.1861 23.8888H63.3003Z" fill="#743248"/>
<path d="M63.4146 23.8888L63.0594 25.7662H62.9452L63.3004 23.8888H63.4146Z" fill="#733348"/>
<path d="M63.5287 23.8888L63.1735 25.7662H63.0593L63.4145 23.8888H63.5287Z" fill="#713348"/>
<path d="M63.6428 23.8888L63.2876 25.7662H63.1735L63.5287 23.8888H63.6428Z" fill="#703349"/>
<path d="M63.6523 23.8888L63.7522 23.9078L63.4018 25.7662H63.2876L63.6428 23.8888H63.6523Z" fill="#6F3349"/>
<path d="M63.7523 23.9078L63.8633 23.9284L63.516 25.7663H63.4019L63.7523 23.9078Z" fill="#6E3349"/>
<path d="M63.8633 23.9285L63.9743 23.949L63.6302 25.7663H63.516L63.8633 23.9285Z" fill="#6D3349"/>
<path d="M63.9742 23.949L64.0836 23.9711L63.7443 25.7662H63.6301L63.9742 23.949Z" fill="#6C344A"/>
<path d="M64.0837 23.9712L64.182 23.9886V24.0535L63.8601 25.7663H63.7444L64.0837 23.9712Z" fill="#6B344A"/>
<path d="M64.182 24.6598L63.9743 25.7663H63.8601L64.182 24.0535V24.6598Z" fill="#6A344A"/>
<path d="M64.182 25.2645L64.0884 25.7663H63.9742L64.182 24.6598V25.2645Z" fill="#69344B"/>
<path d="M64.0884 25.7662L64.1819 25.2644V25.7662H64.0884Z" fill="#68344B"/>
<path d="M60.2162 20.2511L60.1147 20.7925V20.2511H60.2162Z" fill="#952D3E"/>
<path d="M60.3304 20.2511L60.1147 21.3972V20.7925L60.2162 20.2511H60.3304Z" fill="#942D3F"/>
<path d="M60.4446 20.2511L60.1576 21.7771H60.1147V21.3972L60.3304 20.2511H60.4446Z" fill="#932D3F"/>
<path d="M60.5586 20.2511L60.2716 21.7771H60.1575L60.4445 20.2511H60.5586Z" fill="#922D3F"/>
<path d="M60.6729 20.2511L60.3859 21.7771H60.2717L60.5587 20.2511H60.6729Z" fill="#912D3F"/>
<path d="M60.7886 20.2511L60.5 21.7771H60.3859L60.6729 20.2511H60.7886Z" fill="#902D40"/>
<path d="M60.9028 20.2511L60.6142 21.7771H60.5L60.7886 20.2511H60.9028Z" fill="#8F2E40"/>
<path d="M61.017 20.2511L60.7284 21.7771H60.6143L60.9028 20.2511H61.017Z" fill="#8E2E40"/>
<path d="M61.1312 20.2511L60.8426 21.7771H60.7284L61.017 20.2511H61.1312Z" fill="#8D2E41"/>
<path d="M61.2453 20.2511L60.9567 21.7771H60.8425L61.1311 20.2511H61.2453Z" fill="#8C2E41"/>
<path d="M61.3594 20.2511L61.0708 21.7771H60.9567L61.2453 20.2511H61.3594Z" fill="#8B2E41"/>
<path d="M61.4737 20.2511L61.1851 21.7771H61.0709L61.3595 20.2511H61.4737Z" fill="#8A2F41"/>
<path d="M61.5878 20.2511L61.2992 21.7771H61.1851L61.4737 20.2511H61.5878Z" fill="#892F42"/>
<path d="M61.702 20.2511L61.4134 21.7771H61.2992L61.5878 20.2511H61.702Z" fill="#882F42"/>
<path d="M61.8161 20.2511L61.5275 21.7771H61.4133L61.7019 20.2511H61.8161Z" fill="#872F42"/>
<path d="M61.9304 20.2511L61.6418 21.7771H61.5276L61.8162 20.2511H61.9304Z" fill="#862F43"/>
<path d="M62.0445 20.2511L61.7559 21.7771H61.6417L61.9303 20.2511H62.0445Z" fill="#852F43"/>
<path d="M62.1586 20.2511L61.87 21.7771H61.7559L62.0445 20.2511H62.1586Z" fill="#843043"/>
<path d="M62.2729 20.2511L61.9843 21.7771H61.8701L62.1587 20.2511H62.2729Z" fill="#833043"/>
<path d="M62.387 20.2511L62.0984 21.7771H61.9843L62.2728 20.2511H62.387Z" fill="#823044"/>
<path d="M62.5012 20.2511L62.2126 21.7771H62.0984L62.387 20.2511H62.5012Z" fill="#813044"/>
<path d="M62.6153 20.2511L62.3267 21.7771H62.2125L62.5011 20.2511H62.6153Z" fill="#803044"/>
<path d="M62.7295 20.2511L62.441 21.7771H62.3268L62.6154 20.2511H62.7295Z" fill="#7F3045"/>
<path d="M62.8437 20.2511L62.5567 21.7771H62.4409L62.7295 20.2511H62.8437Z" fill="#7E3145"/>
<path d="M62.9578 20.2511L62.6708 21.7771H62.5566L62.8436 20.2511H62.9578Z" fill="#7D3145"/>
<path d="M63.072 20.2511L62.7849 21.7771H62.6708L62.9578 20.2511H63.072Z" fill="#7C3145"/>
<path d="M63.1862 20.2511L62.8992 21.7771H62.785L63.072 20.2511H63.1862Z" fill="#7B3146"/>
<path d="M63.3003 20.2511L63.0133 21.7771H62.8992L63.1862 20.2511H63.3003Z" fill="#7A3146"/>
<path d="M63.4145 20.2511L63.1275 21.7771H63.0133L63.3003 20.2511H63.4145Z" fill="#793146"/>
<path d="M63.5286 20.2511L63.2416 21.7771H63.1274L63.4145 20.2511H63.5286Z" fill="#783247"/>
<path d="M63.6429 20.2511L63.3559 21.7771H63.2417L63.5287 20.2511H63.6429Z" fill="#773247"/>
<path d="M63.757 20.2511L63.47 21.7771H63.3558L63.6428 20.2511H63.757Z" fill="#763247"/>
<path d="M63.7649 20.8178L63.5841 21.7771H63.47L63.757 20.2511H63.7649V20.8178Z" fill="#753247"/>
<path d="M63.765 21.4226L63.6984 21.7772H63.5842L63.765 20.8179V21.4226Z" fill="#743248"/>
<path d="M63.6984 21.7771L63.765 21.4225V21.7771H63.6984Z" fill="#733348"/>
<path d="M58.4038 17.7548L58.3419 18.0824V17.7548H58.4038Z" fill="#A92939"/>
<path d="M58.5179 17.7548L58.3419 18.6887V18.0824L58.4038 17.7548H58.5179Z" fill="#A82939"/>
<path d="M58.6321 17.7548L58.3609 19.1921H58.3419V18.6887L58.5179 17.7548H58.6321Z" fill="#A72939"/>
<path d="M58.7463 17.7548L58.4751 19.1921H58.361L58.6321 17.7548H58.7463Z" fill="#A62A3A"/>
<path d="M58.8604 17.7548L58.5893 19.1921H58.4751L58.7463 17.7548H58.8604Z" fill="#A52A3A"/>
<path d="M58.9746 17.7548L58.7034 19.1921H58.5892L58.8604 17.7548H58.9746Z" fill="#A42A3A"/>
<path d="M59.0888 17.7548L58.8177 19.1921H58.7035L58.9746 17.7548H59.0888Z" fill="#A32A3A"/>
<path d="M59.2029 17.7548L58.9318 19.1921H58.8176L59.0888 17.7548H59.2029Z" fill="#A22A3B"/>
<path d="M59.3171 17.7548L59.0459 19.1921H58.9318L59.2029 17.7548H59.3171Z" fill="#A12B3B"/>
<path d="M59.4313 17.7548L59.1602 19.1921H59.046L59.3172 17.7548H59.4313Z" fill="#A02B3B"/>
<path d="M59.5455 17.7548L59.2743 19.1921H59.1602L59.4313 17.7548H59.5455Z" fill="#9F2B3B"/>
<path d="M59.6596 17.7548L59.3885 19.1921H59.2743L59.5454 17.7548H59.6596Z" fill="#9E2B3C"/>
<path d="M59.7737 17.7548L59.5026 19.1921H59.3884L59.6596 17.7548H59.7737Z" fill="#9D2B3C"/>
<path d="M59.888 17.7548L59.6169 19.1921H59.5027L59.7738 17.7548H59.888Z" fill="#9C2B3C"/>
<path d="M60.0021 17.7548L59.731 19.1921H59.6168L59.888 17.7548H60.0021Z" fill="#9B2C3D"/>
<path d="M60.1163 17.7548L59.8451 19.1921H59.731L60.0021 17.7548H60.1163Z" fill="#9A2C3D"/>
<path d="M60.2304 17.7548L59.9593 19.1921H59.8451L60.1162 17.7548H60.2304Z" fill="#992C3D"/>
<path d="M60.3447 17.7548L60.0735 19.1921H59.9594L60.2305 17.7548H60.3447Z" fill="#982C3D"/>
<path d="M60.4588 17.7548L60.1877 19.1921H60.0735L60.3446 17.7548H60.4588Z" fill="#972C3E"/>
<path d="M60.5729 17.7548L60.3018 19.1921H60.1876L60.4588 17.7548H60.5729Z" fill="#962C3E"/>
<path d="M60.6888 17.7548L60.416 19.1921H60.3019L60.573 17.7548H60.6888Z" fill="#952D3E"/>
<path d="M60.8029 17.7548L60.5318 19.1921H60.416L60.6888 17.7548H60.8029Z" fill="#942D3F"/>
<path d="M60.9171 17.7548L60.6459 19.1921H60.5317L60.8029 17.7548H60.9171Z" fill="#932D3F"/>
<path d="M61.0312 17.7548L60.76 19.1921H60.6459L60.917 17.7548H61.0312Z" fill="#922D3F"/>
<path d="M61.1455 17.7548L60.8743 19.1921H60.7601L61.0313 17.7548H61.1455Z" fill="#912D3F"/>
<path d="M61.2596 17.7548L60.9884 19.1921H60.8743L61.1454 17.7548H61.2596Z" fill="#902D40"/>
<path d="M61.3737 17.7548L61.1026 19.1921H60.9884L61.2596 17.7548H61.3737Z" fill="#8F2E40"/>
<path d="M61.4879 17.7548L61.2167 19.1921H61.1025L61.3737 17.7548H61.4879Z" fill="#8E2E40"/>
<path d="M61.6021 17.7548L61.331 19.1921H61.2168L61.4879 17.7548H61.6021Z" fill="#8D2E41"/>
<path d="M61.7163 17.7548L61.4451 19.1921H61.3309L61.6021 17.7548H61.7163Z" fill="#8C2E41"/>
<path d="M61.8304 17.7548L61.5592 19.1921H61.4451L61.7162 17.7548H61.8304Z" fill="#8B2E41"/>
<path d="M61.9446 17.7548L61.6735 19.1921H61.5593L61.8305 17.7548H61.9446Z" fill="#8A2F41"/>
<path d="M62.0588 17.7548L61.7876 19.1921H61.6735L61.9446 17.7548H62.0588Z" fill="#892F42"/>
<path d="M62.1729 17.7548L61.9018 19.1921H61.7876L62.0587 17.7548H62.1729Z" fill="#882F42"/>
<path d="M62.2871 17.7548L62.0159 19.1921H61.9017L62.1729 17.7548H62.2871Z" fill="#872F42"/>
<path d="M62.4013 17.7548L62.1302 19.1921H62.016L62.2871 17.7548H62.4013Z" fill="#862F43"/>
<path d="M62.5154 17.7548L62.2443 19.1921H62.1301L62.4013 17.7548H62.5154Z" fill="#852F43"/>
<path d="M62.6296 17.7548L62.3584 19.1921H62.2443L62.5154 17.7548H62.6296Z" fill="#843043"/>
<path d="M62.7437 17.7548L62.4726 19.1921H62.3584L62.6295 17.7548H62.7437Z" fill="#833043"/>
<path d="M62.858 17.7548L62.5868 19.1921H62.4727L62.7438 17.7548H62.858Z" fill="#823044"/>
<path d="M62.9721 17.7548L62.701 19.1921H62.5868L62.8579 17.7548H62.9721Z" fill="#813044"/>
<path d="M63.0862 17.7548L62.8151 19.1921H62.7009L62.9721 17.7548H63.0862Z" fill="#803044"/>
<path d="M63.2004 17.7548L62.9292 19.1921H62.8151L63.0862 17.7548H63.2004Z" fill="#7F3045"/>
<path d="M63.3146 17.7548L63.0435 19.1921H62.9293L63.2005 17.7548H63.3146Z" fill="#7E3145"/>
<path d="M63.4288 17.7548L63.1576 19.1921H63.0435L63.3146 17.7548H63.4288Z" fill="#7D3145"/>
<path d="M63.5429 17.7548L63.2718 19.1921H63.1576L63.4287 17.7548H63.5429Z" fill="#7C3145"/>
<path d="M63.6588 17.7548L63.386 19.1921H63.2719L63.543 17.7548H63.6588Z" fill="#7B3146"/>
<path d="M63.7729 17.7548L63.5017 19.1921H63.386L63.6587 17.7548H63.7729Z" fill="#7A3146"/>
<path d="M63.887 17.7548L63.6159 19.1921H63.5017L63.7729 17.7548H63.887Z" fill="#793146"/>
<path d="M64.0012 17.7548L63.73 19.1921H63.6158L63.887 17.7548H64.0012Z" fill="#783247"/>
<path d="M64.1154 17.7548L63.8443 19.1921H63.7301L64.0013 17.7548H64.1154Z" fill="#773247"/>
<path d="M64.2296 17.7548L63.9584 19.1921H63.8442L64.1154 17.7548H64.2296Z" fill="#763247"/>
<path d="M64.3437 17.7548L64.0725 19.1921H63.9584L64.2295 17.7548H64.3437Z" fill="#753247"/>
<path d="M64.4578 17.7548L64.1867 19.1921H64.0725L64.3437 17.7548H64.4578Z" fill="#743248"/>
<path d="M64.5721 17.7548L64.3009 19.1921H64.1868L64.4579 17.7548H64.5721Z" fill="#733348"/>
<path d="M64.6862 17.7548L64.4151 19.1921H64.3009L64.5721 17.7548H64.6862Z" fill="#713348"/>
<path d="M64.8004 17.7548L64.5292 19.1921H64.415L64.6862 17.7548H64.8004Z" fill="#703349"/>
<path d="M64.9146 17.7548L64.6435 19.1921H64.5293L64.8004 17.7548H64.9146Z" fill="#6F3349"/>
<path d="M65.0288 17.7548L64.7576 19.1921H64.6434L64.9146 17.7548H65.0288Z" fill="#6E3349"/>
<path d="M65.1429 17.7548L64.8717 19.1921H64.7576L65.0287 17.7548H65.1429Z" fill="#6D3349"/>
<path d="M65.257 17.7548L64.9859 19.1921H64.8717L65.1429 17.7548H65.257Z" fill="#6C344A"/>
<path d="M65.3713 17.7548L65.1001 19.1921H64.986L65.2571 17.7548H65.3713Z" fill="#6B344A"/>
<path d="M65.4854 17.7548L65.2143 19.1921H65.1001L65.3713 17.7548H65.4854Z" fill="#6A344A"/>
<path d="M65.5996 17.7548L65.3284 19.1921H65.2142L65.4854 17.7548H65.5996Z" fill="#69344B"/>
<path d="M65.6423 18.1315L65.4425 19.1921H65.3284L65.5995 17.7548H65.6423V18.1315Z" fill="#68344B"/>
<path d="M65.6424 18.7378L65.5568 19.1921H65.4426L65.6424 18.1315V18.7378Z" fill="#67344B"/>
<path d="M65.5568 19.1921L65.6424 18.7378V19.1921H65.5568Z" fill="#66354B"/>
<path d="M56.3582 14.0616L55.6859 17.625V17.0202L56.2441 14.0616H56.3582Z" fill="#C12532"/>
<path d="M56.4724 14.0616L55.6859 18.2312V17.625L56.3582 14.0616H56.4724Z" fill="#C02532"/>
<path d="M56.5866 14.0616L55.6859 18.8359V18.2312L56.4724 14.0616H56.5866Z" fill="#BF2532"/>
<path d="M56.7023 14.0616L55.6859 19.4406V18.8359L56.5866 14.0616H56.7023Z" fill="#BE2533"/>
<path d="M56.8165 14.0616L55.6859 20.0469V19.4406L56.7023 14.0616H56.8165Z" fill="#BD2633"/>
<path d="M56.9307 14.0616L55.6859 20.6516V20.0469L56.8165 14.0616H56.9307Z" fill="#BC2633"/>
<path d="M57.0448 14.0616L55.6859 21.2563V20.6516L56.9307 14.0616H57.0448Z" fill="#BB2634"/>
<path d="M57.159 14.0616L55.6859 21.8626V21.2563L57.0448 14.0616H57.159Z" fill="#BA2634"/>
<path d="M57.2732 14.0616L55.6859 22.4673V21.8626L57.159 14.0616H57.2732Z" fill="#B92634"/>
<path d="M57.3873 14.0616L55.6859 23.072V22.4673L57.2732 14.0616H57.3873Z" fill="#B82734"/>
<path d="M57.5015 14.0616L55.6859 23.6783V23.072L57.3873 14.0616H57.5015Z" fill="#B72735"/>
<path d="M57.6157 14.0616L55.6859 24.283V23.6783L57.5015 14.0616H57.6157Z" fill="#B62735"/>
<path d="M57.7299 14.0616L55.6859 24.8877V24.283L57.6157 14.0616H57.7299Z" fill="#B52735"/>
<path d="M57.844 14.0616L55.6859 25.494V24.8877L57.7299 14.0616H57.844Z" fill="#B42736"/>
<path d="M57.9582 14.0616L55.6859 26.0987V25.494L57.844 14.0616H57.9582Z" fill="#B32736"/>
<path d="M58.0724 14.0616L55.6859 26.7034V26.0987L57.9582 14.0616H58.0724Z" fill="#B22836"/>
<path d="M58.1865 14.0616L55.6859 27.3097V26.7034L58.0724 14.0616H58.1865Z" fill="#B12836"/>
<path d="M58.3007 14.0616L55.6859 27.9144V27.3097L58.1865 14.0616H58.3007Z" fill="#B02837"/>
<path d="M58.4149 14.0616L55.6859 28.5207V27.9144L58.3007 14.0616H58.4149Z" fill="#AF2837"/>
<path d="M58.529 14.0616L55.6859 29.1254V28.5207L58.4149 14.0616H58.529Z" fill="#AE2837"/>
<path d="M58.6432 14.0616L55.6859 29.7301V29.1254L58.529 14.0616H58.6432Z" fill="#AD2838"/>
<path d="M58.7574 14.0616L55.6859 30.3363V29.7301L58.6432 14.0616H58.7574Z" fill="#AC2938"/>
<path d="M58.8715 14.0616L55.6859 30.941V30.3363L58.7574 14.0616H58.8715Z" fill="#AB2938"/>
<path d="M58.9857 14.0616L55.6859 31.5457V30.941L58.8715 14.0616H58.9857Z" fill="#AA2938"/>
<path d="M59.0999 14.0616L55.6859 32.152V31.5457L58.9857 14.0616H59.0999Z" fill="#A92939"/>
<path d="M59.214 14.0616L55.6859 32.7567V32.152L59.0999 14.0616H59.214Z" fill="#A82939"/>
<path d="M59.3282 14.0616L55.6859 33.3614V32.7567L59.214 14.0616H59.3282Z" fill="#A72939"/>
<path d="M59.4424 14.0616L55.6859 33.9677V33.3614L59.3282 14.0616H59.4424Z" fill="#A62A3A"/>
<path d="M59.5566 14.0616L55.6859 34.5724V33.9677L59.4424 14.0616H59.5566Z" fill="#A52A3A"/>
<path d="M59.6723 14.0616L55.6859 35.1771V34.5724L59.5566 14.0616H59.6723Z" fill="#A42A3A"/>
<path d="M59.7865 14.0616L55.6859 35.7834V35.1771L59.6723 14.0616H59.7865Z" fill="#A32A3A"/>
<path d="M59.9006 14.0616L55.6859 36.3881V35.7834L59.7865 14.0616H59.9006Z" fill="#A22A3B"/>
<path d="M60.0148 14.0616L55.6859 36.9928V36.3881L59.9006 14.0616H60.0148Z" fill="#A12B3B"/>
<path d="M60.129 14.0616L55.6859 37.5991V36.9928L60.0148 14.0616H60.129Z" fill="#A02B3B"/>
<path d="M60.2432 14.0616L55.6859 38.2038V37.5991L60.129 14.0616H60.2432Z" fill="#9F2B3B"/>
<path d="M60.3573 14.0616L55.6859 38.8101V38.2038L60.2432 14.0616H60.3573Z" fill="#9E2B3C"/>
<path d="M60.4715 14.0616L55.6859 39.4148V38.8101L60.3573 14.0616H60.4715Z" fill="#9D2B3C"/>
<path d="M60.5857 14.0616L55.6859 40.0195V39.4148L60.4715 14.0616H60.5857Z" fill="#9C2B3C"/>
<path d="M60.6998 14.0616L55.6859 40.6258V40.0195L60.5857 14.0616H60.6998Z" fill="#9B2C3D"/>
<path d="M60.814 14.0616L55.6859 41.2305V40.6258L60.6998 14.0616H60.814Z" fill="#9A2C3D"/>
<path d="M60.9282 14.0616L55.6859 41.8352V41.2305L60.814 14.0616H60.9282Z" fill="#992C3D"/>
<path d="M61.0423 14.0616L55.6859 42.4415V41.8352L60.9282 14.0616H61.0423Z" fill="#982C3D"/>
<path d="M61.1565 14.0616L55.6859 43.0462V42.4415L61.0423 14.0616H61.1565Z" fill="#972C3E"/>
<path d="M61.2707 14.0616L55.6859 43.6509V43.0462L61.1565 14.0616H61.2707Z" fill="#962C3E"/>
<path d="M61.3848 14.0616L55.6859 44.2571V43.6509L61.2707 14.0616H61.3848Z" fill="#952D3E"/>
<path d="M61.499 14.0616L55.7509 44.5199H55.6859V44.2571L61.3848 14.0616H61.499Z" fill="#942D3F"/>
<path d="M61.6132 14.0616L55.8651 44.5199H55.751L61.4991 14.0616H61.6132Z" fill="#932D3F"/>
<path d="M61.7274 14.0616L55.9793 44.5199H55.8651L61.6132 14.0616H61.7274Z" fill="#922D3F"/>
<path d="M61.8415 14.0616L56.0934 44.5199H55.9792L61.7273 14.0616H61.8415Z" fill="#912D3F"/>
<path d="M61.9556 14.0616L56.2076 44.5199H56.0934L61.8415 14.0616H61.9556Z" fill="#902D40"/>
<path d="M62.0699 14.0616L56.3218 44.5199H56.2076L61.9557 14.0616H62.0699Z" fill="#8F2E40"/>
<path d="M62.184 14.0616L56.4359 44.5199H56.3218L62.0699 14.0616H62.184Z" fill="#8E2E40"/>
<path d="M62.2982 14.0616L56.5501 44.5199H56.4359L62.184 14.0616H62.2982Z" fill="#8D2E41"/>
<path d="M62.4123 14.0616L56.6642 44.5199H56.55L62.2981 14.0616H62.4123Z" fill="#8C2E41"/>
<path d="M62.5266 14.0616L56.7785 44.5199H56.6643L62.4124 14.0616H62.5266Z" fill="#8B2E41"/>
<path d="M62.6407 14.0616L56.8926 44.5199H56.7784L62.5265 14.0616H62.6407Z" fill="#8A2F41"/>
<path d="M62.7564 14.0616L57.0067 44.5199H56.8926L62.6407 14.0616H62.7564Z" fill="#892F42"/>
<path d="M62.8707 14.0616L57.121 44.5199H57.0068L62.7565 14.0616H62.8707Z" fill="#882F42"/>
<path d="M62.9848 14.0616L57.2351 44.5199H57.121L62.8706 14.0616H62.9848Z" fill="#872F42"/>
<path d="M63.0989 14.0616L57.3493 44.5199H57.2351L62.9848 14.0616H63.0989Z" fill="#862F43"/>
<path d="M63.2131 14.0616L57.4634 44.5199H57.3492L63.0989 14.0616H63.2131Z" fill="#852F43"/>
<path d="M63.3273 14.0616L57.5777 44.5199H57.4635L63.2132 14.0616H63.3273Z" fill="#843043"/>
<path d="M63.4415 14.0616L57.6934 44.5199H57.5776L63.3273 14.0616H63.4415Z" fill="#833043"/>
<path d="M63.5556 14.0616L57.8075 44.5199H57.6934L63.4414 14.0616H63.5556Z" fill="#823044"/>
<path d="M63.6697 14.0616L57.9217 44.5199H57.8075L63.5556 14.0616H63.6697Z" fill="#813044"/>
<path d="M63.784 14.0616L58.0359 44.5199H57.9218L63.6698 14.0616H63.784Z" fill="#803044"/>
<path d="M63.8981 14.0616L58.1501 44.5199H58.0359L63.784 14.0616H63.8981Z" fill="#7F3045"/>
<path d="M64.0123 14.0616L58.2642 44.5199H58.15L63.8981 14.0616H64.0123Z" fill="#7E3145"/>
<path d="M64.1265 14.0616L58.3785 44.5199H58.2643L64.0124 14.0616H64.1265Z" fill="#7D3145"/>
<path d="M64.2407 14.0616L58.4926 44.5199H58.3784L64.1265 14.0616H64.2407Z" fill="#7C3145"/>
<path d="M64.3548 14.0616L58.6067 44.5199H58.4926L64.2406 14.0616H64.3548Z" fill="#7B3146"/>
<path d="M64.4689 14.0616L58.7209 44.5199H58.6067L64.3548 14.0616H64.4689Z" fill="#7A3146"/>
<path d="M64.5832 14.0616L58.8351 44.5199H58.7209L64.469 14.0616H64.5832Z" fill="#793146"/>
<path d="M64.6973 14.0616L58.9493 44.5199H58.8351L64.5832 14.0616H64.6973Z" fill="#783247"/>
<path d="M64.8115 14.0616L59.0634 44.5199H58.9492L64.6973 14.0616H64.8115Z" fill="#773247"/>
<path d="M64.9256 14.0616L59.1775 44.5199H59.0634L64.8114 14.0616H64.9256Z" fill="#763247"/>
<path d="M65.0399 14.0616L59.2918 44.5199H59.1776L64.9257 14.0616H65.0399Z" fill="#753247"/>
<path d="M65.154 14.0616L59.4059 44.5199H59.2917L65.0398 14.0616H65.154Z" fill="#743248"/>
<path d="M65.2681 14.0616L59.52 44.5199H59.4059L65.154 14.0616H65.2681Z" fill="#733348"/>
<path d="M65.3824 14.0616L59.6343 44.5199H59.5201L65.2682 14.0616H65.3824Z" fill="#713348"/>
<path d="M65.4965 14.0616L59.7484 44.5199H59.6343L65.3824 14.0616H65.4965Z" fill="#703349"/>
<path d="M65.6107 14.0616L59.8626 44.5199H59.7484L65.4965 14.0616H65.6107Z" fill="#6F3349"/>
<path d="M65.7248 14.0616L59.9767 44.5199H59.8625L65.6106 14.0616H65.7248Z" fill="#6E3349"/>
<path d="M65.8406 14.0616L60.091 44.5199H59.9768L65.7249 14.0616H65.8406Z" fill="#6D3349"/>
<path d="M65.9548 14.0616L60.2051 44.5199H60.0909L65.8406 14.0616H65.9548Z" fill="#6C344A"/>
<path d="M66.0689 14.0616L60.3192 44.5199H60.2051L65.9547 14.0616H66.0689Z" fill="#6B344A"/>
<path d="M66.1831 14.0616L60.4334 44.5199H60.3192L66.0689 14.0616H66.1831Z" fill="#6A344A"/>
<path d="M66.2973 14.0616L60.5476 44.5199H60.4335L66.1831 14.0616H66.2973Z" fill="#69344B"/>
<path d="M66.4114 14.0616L60.6634 44.5199H60.5476L66.2973 14.0616H66.4114Z" fill="#68344B"/>
<path d="M66.5256 14.0616L60.7775 44.5199H60.6633L66.4114 14.0616H66.5256Z" fill="#67344B"/>
<path d="M66.6398 14.0616L60.8918 44.5199H60.7776L66.5257 14.0616H66.6398Z" fill="#66354B"/>
<path d="M66.754 14.0616L61.0059 44.5199H60.8917L66.6398 14.0616H66.754Z" fill="#65354C"/>
<path d="M66.8681 14.0616L61.12 44.5199H61.0059L66.7539 14.0616H66.8681Z" fill="#64354C"/>
<path d="M66.9822 14.0616L61.2342 44.5199H61.12L66.8681 14.0616H66.9822Z" fill="#63354C"/>
<path d="M67.0965 14.0616L61.3484 44.5199H61.2343L66.9823 14.0616H67.0965Z" fill="#62354D"/>
<path d="M67.2106 14.0616L61.4626 44.5199H61.3484L67.0965 14.0616H67.2106Z" fill="#61354D"/>
<path d="M67.3248 14.0616L61.5767 44.5199H61.4625L67.2106 14.0616H67.3248Z" fill="#60364D"/>
<path d="M67.4389 14.0616L61.6908 44.5199H61.5767L67.3247 14.0616H67.4389Z" fill="#5F364D"/>
<path d="M67.5532 14.0616L61.8051 44.5199H61.6909L67.439 14.0616H67.5532Z" fill="#5E364E"/>
<path d="M67.6673 14.0616L61.9192 44.5199H61.8051L67.5531 14.0616H67.6673Z" fill="#5D364E"/>
<path d="M67.7814 14.0616L62.0334 44.5199H61.9192L67.6673 14.0616H67.7814Z" fill="#5C364E"/>
<path d="M67.8956 14.0616L62.1475 44.5199H62.0333L67.7814 14.0616H67.8956Z" fill="#5B364F"/>
<path d="M68.0098 14.0616L62.2618 44.5199H62.1476L67.8957 14.0616H68.0098Z" fill="#5A374F"/>
<path d="M68.124 14.0616L62.3759 44.5199H62.2617L68.0098 14.0616H68.124Z" fill="#59374F"/>
<path d="M68.2381 14.0616L62.49 44.5199H62.3759L68.1239 14.0616H68.2381Z" fill="#58374F"/>
<path d="M68.3524 14.0616L62.6043 44.5199H62.4901L68.2382 14.0616H68.3524Z" fill="#573750"/>
<path d="M68.3793 14.527L62.7184 44.5199H62.6042L68.3523 14.0616H68.3793V14.527Z" fill="#563750"/>
<path d="M68.3793 15.1334L62.8326 44.52H62.7184L68.3793 14.5271V15.1334Z" fill="#553850"/>
<path d="M68.3792 15.738L62.9467 44.5199H62.8325L68.3792 15.1333V15.738Z" fill="#543851"/>
<path d="M68.3793 16.3427L63.0609 44.5199H62.9468L68.3793 15.738V16.3427Z" fill="#533851"/>
<path d="M68.3793 16.9491L63.1751 44.52H63.0609L68.3793 16.3428V16.9491Z" fill="#523851"/>
<path d="M68.3792 17.5537L63.2892 44.5199H63.175L68.3792 16.949V17.5537Z" fill="#513851"/>
<path d="M68.3792 18.1584L63.4034 44.5199H63.2892L68.3792 17.5537V18.1584Z" fill="#503852"/>
<path d="M68.3793 18.7647L63.5176 44.5199H63.4034L68.3793 18.1584V18.7647Z" fill="#4F3952"/>
<path d="M68.3793 19.3693L63.6317 44.5199H63.5176L68.3793 18.7646V19.3693Z" fill="#4E3952"/>
<path d="M68.3792 19.9741L63.7475 44.5199H63.6317L68.3792 19.3694V19.9741Z" fill="#4D3953"/>
<path d="M68.3793 20.5804L63.8617 44.5199H63.7476L68.3793 19.9741V20.5804Z" fill="#4C3953"/>
<path d="M68.3793 21.1851L63.9759 44.52H63.8617L68.3793 20.5804V21.1851Z" fill="#4B3953"/>
<path d="M68.3793 21.7898L64.09 44.5199H63.9758L68.3793 21.1851V21.7898Z" fill="#4A3953"/>
<path d="M68.3792 22.3961L64.2041 44.5199H64.09L68.3792 21.7898V22.3961Z" fill="#493A54"/>
<path d="M68.3793 23.0008L64.3184 44.52H64.2042L68.3793 22.3961V23.0008Z" fill="#483A54"/>
<path d="M68.3793 23.6054L64.4325 44.5199H64.3184L68.3793 23.0007V23.6054Z" fill="#473A54"/>
<path d="M68.3792 24.2118L64.5467 44.5199H64.4325L68.3792 23.6055V24.2118Z" fill="#463A55"/>
<path d="M68.3792 24.8165L64.6608 44.5199H64.5466L68.3792 24.2118V24.8165Z" fill="#453A55"/>
<path d="M68.3793 25.4228L64.7751 44.52H64.6609L68.3793 24.8165V25.4228Z" fill="#443A55"/>
<path d="M68.3793 26.0274L64.8892 44.5199H64.775L68.3793 25.4227V26.0274Z" fill="#433B55"/>
<path d="M68.3792 26.6322L65.0033 44.5199H64.8892L68.3792 26.0275V26.6322Z" fill="#423B56"/>
<path d="M68.3793 27.2385L65.1176 44.52H65.0034L68.3793 26.6322V27.2385Z" fill="#413B56"/>
<path d="M68.3793 27.8431L65.2317 44.5199H65.1176L68.3793 27.2384V27.8431Z" fill="#403B56"/>
<path d="M68.3793 28.4478L65.3459 44.5199H65.2317L68.3793 27.8431V28.4478Z" fill="#3F3B56"/>
<path d="M68.3792 29.0542L65.46 44.52H65.3458L68.3792 28.4479V29.0542Z" fill="#3E3C57"/>
<path d="M68.3793 29.6588L65.5743 44.5199H65.4601L68.3793 29.0541V29.6588Z" fill="#3D3C57"/>
<path d="M68.3793 30.2635L65.6884 44.5199H65.5742L68.3793 29.6588V30.2635Z" fill="#3C3C57"/>
<path d="M68.3792 30.8698L65.8025 44.5199H65.6884L68.3792 30.2635V30.8698Z" fill="#3B3C58"/>
<path d="M68.3792 31.4746L65.9167 44.52H65.8025L68.3792 30.8699V31.4746Z" fill="#3A3C58"/>
<path d="M68.3793 32.0792L66.0309 44.5199H65.9167L68.3793 31.4745V32.0792Z" fill="#393C58"/>
<path d="M68.3793 32.6855L66.1451 44.5199H66.0309L68.3793 32.0792V32.6855Z" fill="#383D58"/>
<path d="M68.3792 33.2902L66.2592 44.52H66.145L68.3792 32.6855V33.2902Z" fill="#373D59"/>
<path d="M68.3792 33.8949L66.3733 44.5199H66.2592L68.3792 33.2902V33.8949Z" fill="#363D59"/>
<path d="M68.3793 34.5012L66.4876 44.5199H66.3734L68.3793 33.8949V34.5012Z" fill="#353D59"/>
<path d="M68.3793 35.1059L66.6017 44.52H66.4875L68.3793 34.5012V35.1059Z" fill="#343D5A"/>
<path d="M68.3792 35.7121L66.7159 44.5199H66.6017L68.3792 35.1058V35.7121Z" fill="#333D5A"/>
<path d="M68.3793 36.3169L66.8317 44.5199H66.7159L68.3793 35.7122V36.3169Z" fill="#323E5A"/>
<path d="M68.3793 36.9216L66.9458 44.5199H66.8317L68.3793 36.3169V36.9216Z" fill="#313E5A"/>
<path d="M68.3793 37.5279L67.06 44.52H66.9458L68.3793 36.9216V37.5279Z" fill="#303E5B"/>
<path d="M68.3792 38.1325L67.1741 44.5199H67.0599L68.3792 37.5278V38.1325Z" fill="#2F3E5B"/>
<path d="M68.3793 38.7373L67.2884 44.5199H67.1742L68.3793 38.1326V38.7373Z" fill="#2E3E5B"/>
<path d="M68.3793 39.3436L67.4025 44.52H67.2883L68.3793 38.7373V39.3436Z" fill="#2D3E5C"/>
<path d="M68.3792 39.9482L67.5166 44.5199H67.4025L68.3792 39.3435V39.9482Z" fill="#2C3F5C"/>
<path d="M68.3792 40.5529L67.6308 44.5199H67.5166L68.3792 39.9482V40.5529Z" fill="#2B3F5C"/>
<path d="M68.3793 41.1593L67.745 44.5199H67.6309L68.3793 40.553V41.1593Z" fill="#2A3F5C"/>
<path d="M68.3793 41.7639L67.8592 44.5199H67.745L68.3793 41.1592V41.7639Z" fill="#293F5D"/>
</g>
<path d="M113.048 71.1949H10.9523C8.86872 71.1949 7.02774 70.0235 6.14928 68.1381C5.26923 66.2528 5.55623 64.0936 6.89613 62.5027L11.4359 57.1126L14.1062 59.3541L9.56641 64.7442C8.87823 65.561 9.19695 66.4237 9.31112 66.6691C9.42529 66.9145 9.88196 67.7139 10.9523 67.7139H113.046C114.116 67.7139 114.573 66.9145 114.687 66.6691C114.802 66.4237 115.12 65.561 114.432 64.7442L114.419 64.7284L99.8264 46.9942L102.522 44.7843L117.11 62.5122C118.444 64.1031 118.728 66.2575 117.849 68.1397C116.969 70.025 115.13 71.1965 113.046 71.1965L113.048 71.1949Z" fill="url(#paint1_linear_250_3453)"/>
<path d="M55.1292 58.1685C55.1292 58.8745 54.5552 59.4475 53.848 59.4475C53.1408 59.4475 52.5668 58.8745 52.5668 58.1685C52.5668 57.4624 53.1408 56.8894 53.848 56.8894C54.5552 56.8894 55.1292 57.4624 55.1292 58.1685ZM53.3517 57.3279C52.9854 57.4387 52.8015 58.17 53.2137 58.208C53.8401 58.265 54.2079 57.0683 53.3517 57.3279Z" fill="#154565"/>
<g opacity="0.4">
<path d="M53.3516 57.3279C54.2079 57.0682 53.84 58.2634 53.2137 58.208C52.8014 58.17 52.9853 57.4387 53.3516 57.3279Z" fill="#0F4363"/>
</g>
<path d="M58.0897 61.26V61.9613L57.4491 61.9898C57.2303 62.6752 56.6896 63.1754 55.9522 63.2324C54.717 63.3274 53.8417 62.1354 54.2778 60.9877C54.449 60.535 54.9009 60.3894 54.3919 59.8907L54.9913 59.5425L55.3259 59.981C55.9951 59.8084 56.8085 60.0775 57.1954 60.6553C57.5014 61.1096 57.2271 61.3772 58.0881 61.26H58.0897ZM54.985 60.6442C54.3317 61.1935 54.8787 62.004 55.5717 61.3882C56.1568 60.8674 55.6113 60.1171 54.985 60.6442Z" fill="#154565"/>
<g opacity="0.4">
<path d="M54.985 60.6442C55.6114 60.1171 56.1568 60.8674 55.5717 61.3882C54.8788 62.004 54.3317 61.1935 54.985 60.6442Z" fill="#0F4363"/>
</g>
<path d="M60.982 61.6494C60.982 62.3554 60.408 62.9285 59.7008 62.9285C58.9936 62.9285 58.4196 62.3554 58.4196 61.6494C58.4196 60.9434 58.9936 60.3704 59.7008 60.3704C60.408 60.3704 60.982 60.9434 60.982 61.6494ZM59.5327 61.4943C59.7024 61.3265 59.8213 60.9814 59.5914 60.8104C59.2489 60.5572 58.5321 61.2632 58.9175 61.6114C59.1236 61.6953 59.3773 61.6478 59.5343 61.4943H59.5327Z" fill="#154565"/>
<g opacity="0.4">
<path d="M59.5327 61.4943C59.3773 61.6494 59.122 61.6953 58.9158 61.6114C58.5305 61.2631 59.2472 60.5571 59.5897 60.8104C59.8212 60.9814 59.7007 61.3265 59.5311 61.4943H59.5327Z" fill="#0F4363"/>
</g>
<path d="M55.1562 63.3623C55.1975 63.5712 54.8978 63.7596 54.9152 63.9559C54.9247 64.0604 55.0912 64.2804 55.1372 64.4292C55.4496 65.4407 54.4934 66.3288 53.4976 66.0027C52.1514 65.5611 52.497 63.519 53.9115 63.4889C54.2984 63.481 54.338 63.7121 54.5188 63.1074L55.1562 63.3623ZM53.4802 63.948C52.9299 64.0746 52.8411 64.9437 53.4516 64.8155C53.9226 64.7157 54.1906 63.7865 53.4802 63.948Z" fill="#154565"/>
<g opacity="0.4">
<path d="M53.4802 63.9479C54.1906 63.7849 53.9242 64.7157 53.4516 64.8154C52.8412 64.9436 52.93 64.0746 53.4802 63.9479Z" fill="#0F4363"/>
</g>
<path d="M39.7007 64.4767C42.3043 64.4767 44.4149 62.3696 44.4149 59.7704C44.4149 57.1713 42.3043 55.0642 39.7007 55.0642C37.0971 55.0642 34.9865 57.1713 34.9865 59.7704C34.9865 62.3696 37.0971 64.4767 39.7007 64.4767Z" fill="#134363"/>
<path d="M39.7006 56.8751C38.0991 56.8751 36.8004 58.1716 36.8004 59.7704C36.8004 61.3692 38.0991 62.6657 39.7006 62.6657C41.3022 62.6657 42.6008 61.3692 42.6008 59.7704C42.6008 58.1716 41.3022 56.8751 39.7006 56.8751ZM39.7006 61.2188C38.8999 61.2188 38.2497 60.5714 38.2497 59.7704C38.2497 58.9694 38.8983 58.322 39.7006 58.322C40.503 58.322 41.1515 58.9694 41.1515 59.7704C41.1515 60.5714 40.503 61.2188 39.7006 61.2188Z" fill="white"/>
</g>
<defs>
<linearGradient id="paint0_linear_250_3453" x1="47.8621" y1="17.3401" x2="92.0248" y2="17.3401" gradientUnits="userSpaceOnUse">
<stop stop-color="#D2222D"/>
<stop offset="0.9" stop-color="#134363"/>
</linearGradient>
<linearGradient id="paint1_linear_250_3453" x1="5.64503" y1="57.988" x2="118.353" y2="57.988" gradientUnits="userSpaceOnUse">
<stop stop-color="#D2222D"/>
<stop offset="0.9" stop-color="#134363"/>
</linearGradient>
<clipPath id="clip0_250_3453">
<rect width="124" height="120" fill="white"/>
</clipPath>
</defs>
</svg>
