<svg width="20" height="21" viewBox="0 0 20 21" fill="none" xmlns="http://www.w3.org/2000/svg">
<path d="M16.0001 9.6992H17.6001C17.6001 5.5952 14.5017 2.5 10.3921 2.5V4.1C13.6417 4.1 16.0001 6.4544 16.0001 9.6992Z" fill="white"/>
<path d="M10.4001 7.3C12.0825 7.3 12.8001 8.0176 12.8001 9.7H14.4001C14.4001 7.12 12.9801 5.7 10.4001 5.7V7.3ZM13.1377 11.6544C12.984 11.5147 12.782 11.4402 12.5744 11.4466C12.3667 11.453 12.1697 11.5399 12.0249 11.6888L10.1105 13.6576C9.64973 13.5696 8.72333 13.2808 7.76973 12.3296C6.81613 11.3752 6.52733 10.4464 6.44173 9.9888L8.40893 8.0736C8.55806 7.9289 8.64504 7.73185 8.65146 7.52416C8.65788 7.31647 8.58324 7.11443 8.44333 6.9608L5.48733 3.7104C5.34736 3.55628 5.15283 3.4628 4.94505 3.4498C4.73727 3.43681 4.53261 3.50532 4.37453 3.6408L2.63853 5.1296C2.50022 5.26841 2.41766 5.45316 2.40653 5.6488C2.39453 5.8488 2.16573 10.5864 5.83933 14.2616C9.04413 17.4656 13.0585 17.7 14.1641 17.7C14.3257 17.7 14.4249 17.6952 14.4513 17.6936C14.6469 17.6826 14.8316 17.5997 14.9697 17.4608L16.4577 15.724C16.5933 15.566 16.662 15.3614 16.6491 15.1536C16.6363 14.9459 16.5429 14.7513 16.3889 14.6112L13.1377 11.6544Z" fill="white"/>
</svg>
