<svg width="20" height="21" viewBox="0 0 20 21" fill="none" xmlns="http://www.w3.org/2000/svg">
<path d="M13.4487 6.23456V3.03857H5.75133V6.23456H3.82701V0.899902H15.3513V6.23456H13.427H13.4487ZM15.373 11.0406C15.6541 11.0406 15.8703 10.9445 16.0649 10.7282C16.2595 10.5119 16.346 10.2716 16.346 9.95922C16.346 9.64683 16.2595 9.40653 16.0649 9.19026C15.8703 8.97399 15.6541 8.87788 15.373 8.87788C15.0919 8.87788 14.8757 8.97399 14.6811 9.19026C14.4865 9.40653 14.4 9.64683 14.4 9.95922C14.4 10.2716 14.4865 10.5119 14.6811 10.7282C14.8757 10.9445 15.0919 11.0406 15.373 11.0406ZM13.4487 17.9612V13.6839H5.75133V17.9612H13.4487ZM15.373 20.0999H3.84865V15.8226H0V9.40652C0 8.49338 0.28108 7.74846 0.843243 7.12367C1.40541 6.49889 2.07568 6.21054 2.87568 6.21054H16.3243C17.1459 6.21054 17.8162 6.52292 18.3784 7.12367C18.9406 7.72443 19.2 8.49338 19.2 9.40652V15.8226H15.3513V20.0999H15.373ZM17.2973 13.7079V9.43056C17.2973 9.11817 17.2108 8.87787 17.0162 8.6616C16.8216 8.44533 16.6054 8.34921 16.3243 8.34921H2.87568C2.5946 8.34921 2.37837 8.44533 2.18377 8.6616C1.98918 8.87787 1.90268 9.11817 1.90268 9.43056V13.7079H3.82701V11.5692H15.3513V13.7079H17.2757H17.2973Z" fill="white"/>
</svg>
