<svg width="32" height="27" viewBox="0 0 32 27" fill="none" xmlns="http://www.w3.org/2000/svg">
<g clip-path="url(#clip0_333_6466)">
<g clip-path="url(#clip1_333_6466)">
<path d="M11.7261 24.8872C22.353 24.8872 28.1663 16.0208 28.1663 8.34533C28.1663 8.09722 28.1663 7.84557 28.1557 7.59746C29.2875 6.77247 30.2643 5.75108 31.0404 4.58115C29.9832 5.05052 28.8628 5.35987 27.7157 5.49916C28.924 4.77191 29.829 3.62764 30.2625 2.27904C29.1272 2.95625 27.8847 3.43164 26.5893 3.68441C25.7185 2.75049 24.566 2.1318 23.3106 1.92417C22.0552 1.71654 20.7668 1.93155 19.645 2.5359C18.5232 3.14026 17.6306 4.10022 17.1055 5.2671C16.5804 6.43398 16.452 7.74266 16.7404 8.99042C14.4431 8.87443 12.1957 8.2735 10.144 7.22661C8.09221 6.17972 6.2819 4.71024 4.83045 2.9135C4.09361 4.19495 3.86874 5.71076 4.20151 7.1531C4.53428 8.59544 5.39973 9.85619 6.62213 10.6793C5.70612 10.648 4.81025 10.4003 4.00677 9.95627V10.036C4.00835 11.3784 4.47019 12.6791 5.31423 13.7183C6.15827 14.7574 7.33273 15.4712 8.63909 15.739C8.14323 15.8766 7.63101 15.9451 7.11669 15.9428C6.7541 15.9439 6.39224 15.9101 6.03605 15.8418C6.40528 16.9974 7.12421 18.0077 8.09217 18.7313C9.06012 19.455 10.2286 19.8556 11.434 19.8771C9.38631 21.4966 6.85692 22.3749 4.25317 22.3706C3.79438 22.3726 3.3359 22.3459 2.88037 22.2909C5.52304 23.9874 8.59209 24.8881 11.7261 24.8872Z" fill="white"/>
</g>
</g>
<defs>
<clipPath id="clip0_333_6466">
<rect width="30.72" height="25.2988" fill="white" transform="translate(0.959961 0.717773)"/>
</clipPath>
<clipPath id="clip1_333_6466">
<rect width="30.72" height="25.2988" fill="white" transform="translate(0.959961 0.717773)"/>
</clipPath>
</defs>
</svg>
